<?xml version="1.0" encoding="utf-8"?>
<!-- Generator: Adobe Illustrator 27.5.0, SVG Export Plug-In . SVG Version: 6.00 Build 0)  -->
<svg version="1.1" xmlns="http://www.w3.org/2000/svg" xmlns:xlink="http://www.w3.org/1999/xlink" x="0px" y="0px"
	 viewBox="0 0 500 500" style="enable-background:new 0 0 500 500;" xml:space="preserve">
<g id="Background">
	<rect style="fill:#FFFFFF;" width="500" height="500"/>
</g>
<g id="Objects">
	<g>
		<path style="fill:#DDE3EB;" d="M445.631,275.222c-14.306-16.434-33.22-28.11-52.316-38.601
			c-17.913-9.842-38.656-22.279-40.268-42.653c-2.007-25.373,26.749-41.81,36.047-65.504c9.277-23.639-3.225-51.542-23.321-67.067
			c-20.096-15.525-46.022-21.123-71.201-24.423c-36.055-4.725-75.823-4.678-104.897,17.162
			c-25.988,19.522-37.975,52.651-43.14,84.742c-0.052,0.321-0.103,0.642-0.153,0.963c-7.933,50.323-32.41,96.828-70.813,130.303
			c-3.027,2.639-5.896,5.455-8.566,8.488c-23.224,26.39-27.229,66.595-13.995,99.163c13.234,32.568,41.718,57.505,74.068,71.26
			c32.351,13.756,68.325,17.163,103.424,15.2c67.543-3.777,133.869-27.25,188.752-66.801c21.641-15.596,42.8-35.874,46.739-62.257
			C469.209,313.648,459.937,291.656,445.631,275.222z"/>
		<path style="fill:#F0F3F7;" d="M443.852,274.98c-14.173-16.282-32.913-27.849-51.831-38.243
			c-17.747-9.75-38.298-22.072-39.895-42.258c-1.989-25.138,26.501-41.423,35.713-64.896c9.191-23.42-3.195-51.064-23.105-66.445
			s-45.595-20.927-70.54-24.196c-35.721-4.681-75.12-4.635-103.924,17.003c-25.747,19.341-37.623,52.163-42.74,83.956
			c-0.051,0.318-0.102,0.636-0.152,0.954c-7.86,49.857-32.11,95.93-70.157,129.095c-2.999,2.615-5.842,5.404-8.487,8.41
			c-23.009,26.145-26.977,65.978-13.866,98.243c13.111,32.266,41.331,56.972,73.382,70.6
			c32.051,13.628,67.692,17.004,102.465,15.059c66.917-3.742,132.628-26.997,187.002-66.182
			c21.441-15.451,42.403-35.541,46.306-61.68C467.211,313.05,458.025,291.262,443.852,274.98z"/>
		<g id="phone_3_" style="opacity:0.17;">
			<g>
				<g>
					<path style="fill:#42444F;" d="M345.708,146.53v221.752c0,13.924-11.287,25.211-25.211,25.211H201.304
						c-13.924,0-25.211-11.287-25.211-25.211V146.53c0-13.924,11.287-25.211,25.211-25.211h119.194
						C334.421,121.319,345.708,132.606,345.708,146.53z"/>
				</g>
			</g>
		</g>
		<path style="fill:#6F7082;" d="M183.985,147.926H61.825c-35.662,0-38.556-53.05,4.903-53.05c0-50.12,80.256-54.549,80.256-2.236
			c18.368,0,37.573-2.129,42.034,13.445c1.76,6.135,0.799,10.758-4.363,18.437C204.937,119.618,212.735,147.926,183.985,147.926z"/>
		<g id="phone_2_">
			<g>
				<path style="opacity:0.2;fill:#6F7082;" d="M183.985,147.926h-26.309v-23.538c0-11.587,9.393-20.98,20.98-20.98h10.362
					c1.76,6.134,0.799,13.435-4.363,21.114C204.937,119.618,212.735,147.926,183.985,147.926z"/>
			</g>
		</g>
		<path style="fill:#C3C9D4;" d="M167.994,365.488h-40.75c-5.339,0-9.667-4.328-9.667-9.667v-85.242
			c0-5.339,4.328-9.667,9.667-9.667h40.75V365.488z"/>
		<path style="fill:#FFFFFF;" d="M168.994,365.488h-40.75c-5.339,0-9.667-4.328-9.667-9.667v-85.242
			c0-5.339,4.328-9.667,9.667-9.667h40.75V365.488z"/>
		<g id="phone_1_">
			<g>
				<g>
					<path style="fill:#42444F;" d="M180.713,382.428c-9.54,0-17.302-7.762-17.302-17.302v-239.73
						c0-9.54,7.762-17.302,17.302-17.302h137.172c9.54,0,17.302,7.762,17.302,17.302v239.73c0,9.54-7.762,17.302-17.302,17.302
						H180.713z"/>
					<path style="fill:#35363B;" d="M317.884,109.175c8.964,0,16.222,7.258,16.222,16.222v239.73
						c0,8.964-7.258,16.222-16.222,16.222H180.712c-8.964,0-16.222-7.258-16.222-16.222v-239.73c0-8.964,7.258-16.222,16.222-16.222
						H317.884 M317.884,107.015H180.712c-10.136,0-18.382,8.246-18.382,18.382v239.73c0,10.136,8.246,18.382,18.382,18.382h137.172
						c10.136,0,18.382-8.246,18.382-18.382v-239.73C336.266,115.261,328.02,107.015,317.884,107.015L317.884,107.015z"/>
				</g>
			</g>
		</g>
		<path style="fill:#191A1C;" d="M321.584,334.611v35.943H203.074v-35.943c0-3.985,3.219-7.204,7.193-7.204h104.124
			C318.365,327.407,321.584,330.626,321.584,334.611z"/>
		<path style="fill:#27282B;" d="M316.038,329.065v35.943H197.528v-35.943c0-3.985,3.218-7.204,7.193-7.204h104.124
			C312.819,321.861,316.038,325.08,316.038,329.065z"/>
		<path style="fill:#52545C;" d="M309.298,322.326v35.943H190.789v-35.943c0-3.985,3.218-7.204,7.193-7.204h104.124
			C306.08,315.122,309.298,318.34,309.298,322.326z"/>
		<path style="fill:#35363B;" d="M334.106,358.268v6.858c0,8.964-7.258,16.222-16.222,16.222H180.712
			c-8.964,0-16.222-7.258-16.222-16.222v-6.858H334.106z"/>
		<circle style="fill:#FFFFFF;" cx="249.293" cy="368.869" r="9.064"/>
		<path style="fill:#35363B;" d="M291.731,109.175c-0.389,2.84-1.717,5.389-3.65,7.333c-2.333,2.322-5.54,3.769-9.072,3.769h-59.433
			c-6.48,0-11.869-4.86-12.722-11.103H291.731z"/>
		<g id="Artwork_2_4_">
			<g>
				<rect x="365.866" y="178.587" style="fill:#E6EAF0;" width="35.972" height="49.694"/>
				<polygon style="fill:#42444F;" points="375.256,178.587 365.866,178.587 365.866,187.985 				"/>
				<rect x="373.433" y="184.158" style="fill:#6F7082;" width="20.839" height="1.162"/>
				<rect x="373.433" y="187.499" style="fill:#6F7082;" width="20.839" height="1.162"/>
				<rect x="373.433" y="190.841" style="fill:#6F7082;" width="20.839" height="1.162"/>
				<rect x="373.433" y="194.183" style="fill:#6F7082;" width="20.839" height="1.162"/>
				<rect x="373.433" y="197.525" style="fill:#6F7082;" width="20.839" height="1.162"/>
				<rect x="373.433" y="200.866" style="fill:#6F7082;" width="20.839" height="1.162"/>
				<rect x="373.433" y="204.208" style="fill:#6F7082;" width="20.839" height="1.162"/>
				<rect x="373.433" y="207.55" style="fill:#6F7082;" width="20.839" height="1.162"/>
				<rect x="373.433" y="210.892" style="fill:#6F7082;" width="20.839" height="1.162"/>
				<rect x="373.433" y="214.233" style="fill:#6F7082;" width="20.839" height="1.162"/>
				<rect x="373.433" y="217.575" style="fill:#6F7082;" width="20.839" height="1.162"/>
				<rect x="373.433" y="220.917" style="fill:#6F7082;" width="12.604" height="1.162"/>
			</g>
		</g>
		<g id="Artwork_2_5_">
			<g>
				<rect x="384.441" y="194.956" style="fill:#D9DDE3;" width="35.972" height="49.694"/>
				<polygon style="fill:#42444F;" points="393.831,194.956 384.441,194.956 384.441,204.354 				"/>
				<rect x="392.008" y="200.526" style="fill:#6F7082;" width="20.839" height="1.162"/>
				<rect x="392.008" y="203.868" style="fill:#6F7082;" width="20.839" height="1.162"/>
				<rect x="392.008" y="207.21" style="fill:#6F7082;" width="20.839" height="1.162"/>
				<rect x="392.008" y="210.551" style="fill:#6F7082;" width="20.839" height="1.162"/>
				<rect x="392.008" y="213.893" style="fill:#6F7082;" width="20.839" height="1.162"/>
				<rect x="392.008" y="217.235" style="fill:#6F7082;" width="20.839" height="1.162"/>
				<rect x="392.008" y="220.577" style="fill:#6F7082;" width="20.839" height="1.162"/>
				<rect x="392.008" y="223.919" style="fill:#6F7082;" width="20.839" height="1.162"/>
				<rect x="392.008" y="227.26" style="fill:#6F7082;" width="20.839" height="1.162"/>
				<rect x="392.008" y="230.602" style="fill:#6F7082;" width="20.839" height="1.162"/>
				<rect x="392.008" y="233.944" style="fill:#6F7082;" width="20.839" height="1.162"/>
				<rect x="392.008" y="237.286" style="fill:#6F7082;" width="12.604" height="1.162"/>
			</g>
		</g>
		
			<polyline style="fill:none;stroke:#6F7082;stroke-width:1.6281;stroke-linecap:round;stroke-miterlimit:10;stroke-dasharray:0,2.5902;" points="
			365.765,201.842 343.882,201.842 330.05,215.673 		"/>
		<path style="fill:#6F7082;" d="M253.505,410.476v25.575c0,2.581-2.095,4.677-4.666,4.677h-56.96c-2.581,0-4.666-2.095-4.666-4.677
			v-25.575c0-2.581,2.084-4.676,4.666-4.676h56.96C251.41,405.799,253.505,407.895,253.505,410.476z"/>
		<path style="fill:#42444F;" d="M253.505,410.476v9.353c-0.151,0.011-0.313,0.011-0.464,0.011c-5.908,0-10.703-4.795-10.703-10.714
			c0-1.166,0.184-2.279,0.529-3.326h5.972C251.41,405.799,253.505,407.895,253.505,410.476z"/>
		<g>
			
				<ellipse transform="matrix(0.7071 -0.7071 0.7071 0.7071 -213.6163 298.9274)" style="fill:#FFFFFF;" cx="254.029" cy="407.321" rx="10.709" ry="10.709"/>
			<polyline style="fill:none;stroke:#55C0ED;stroke-width:2.16;stroke-miterlimit:10;" points="248,409.464 250.773,412.238 
				260.027,402.984 			"/>
		</g>
		<g>
			<g>
				<path style="fill:#FFFFFF;" d="M230.191,431.322h-20.117c-0.957,0-1.733-0.776-1.733-1.733V416.94
					c0-0.957,0.776-1.733,1.733-1.733h20.117c0.957,0,1.733,0.776,1.733,1.733v12.649
					C231.923,430.546,231.148,431.322,230.191,431.322z"/>
				<g>
					
						<line style="fill:none;stroke:#E6EAF0;stroke-width:0.54;stroke-linecap:round;stroke-linejoin:round;stroke-miterlimit:10;" x1="209.719" y1="430.32" x2="230.546" y2="416.5"/>
					
						<line style="fill:none;stroke:#E6EAF0;stroke-width:0.54;stroke-linecap:round;stroke-linejoin:round;stroke-miterlimit:10;" x1="230.546" y1="430.32" x2="209.719" y2="416.5"/>
				</g>
			</g>
			<g>
				
					<polyline style="fill:none;stroke:#FFFFFF;stroke-width:2.16;stroke-linecap:round;stroke-linejoin:round;stroke-miterlimit:10;" points="
					238.496,420.15 241.144,422.798 238.496,425.445 				"/>
				
					<polyline style="fill:none;stroke:#FFFFFF;stroke-width:2.16;stroke-linecap:round;stroke-linejoin:round;stroke-miterlimit:10;" points="
					201.768,425.62 199.121,422.972 201.768,420.324 				"/>
			</g>
		</g>
		<g>
			<path style="fill:#E6EAF0;" d="M313.774,458.466H271.56c-1.239,0-2.243-1.004-2.243-2.243v-27.225
				c0-1.239,1.004-2.243,2.243-2.243h42.214c1.239,0,2.243,1.004,2.243,2.243v27.225
				C316.017,457.462,315.013,458.466,313.774,458.466z"/>
			<path style="fill:#FFFFFF;" d="M312.9,457.523h-42.214c-1.239,0-2.243-1.004-2.243-2.243v-27.225
				c0-1.239,1.004-2.243,2.243-2.243H312.9c1.239,0,2.243,1.004,2.243,2.243v27.225C315.143,456.519,314.139,457.523,312.9,457.523z
				"/>
			<path style="fill:#E6EAF0;" d="M286.193,452.508h-7.971c-0.741,0-1.341-0.6-1.341-1.341v-16.798c0-0.74,0.6-1.341,1.341-1.341
				h7.971c0.741,0,1.341,0.6,1.341,1.341v16.798C287.533,451.907,286.933,452.508,286.193,452.508z"/>
			<g>
				<rect x="292.238" y="434.29" style="fill:#42444F;" width="13.35" height="1.967"/>
				<rect x="292.238" y="439.162" style="fill:#42444F;" width="13.35" height="1.967"/>
				<rect x="292.238" y="444.033" style="fill:#42444F;" width="13.35" height="1.967"/>
				<rect x="292.238" y="448.905" style="fill:#42444F;" width="13.35" height="1.967"/>
			</g>
		</g>
		<g>
			<path style="fill:#E6EAF0;" d="M393.931,442.223h-64.162c-2.935,0-5.314-2.379-5.314-5.314v-33.886
				c0-2.935,2.379-5.314,5.314-5.314h64.162c2.935,0,5.314,2.379,5.314,5.314v33.886
				C399.244,439.844,396.865,442.223,393.931,442.223z"/>
			<path style="fill:#FFFFFF;" d="M393.931,441.143h-64.162c-2.935,0-5.314-2.379-5.314-5.314v-33.886
				c0-2.935,2.379-5.314,5.314-5.314h64.162c2.935,0,5.314,2.379,5.314,5.314v33.886
				C399.244,438.764,396.865,441.143,393.931,441.143z"/>
			<g>
				<g>
					<path style="fill:#D2D6DB;" d="M342.371,432.262h-7.874c-0.786,0-1.424-0.638-1.424-1.424v-22.946
						c0-0.786,0.638-1.424,1.424-1.424h7.874c0.786,0,1.424,0.637,1.424,1.424v22.946
						C343.795,431.624,343.158,432.262,342.371,432.262z"/>
					<path style="fill:#E6EAF0;" d="M342.371,431.303h-7.874c-0.786,0-1.424-0.638-1.424-1.424v-22.946
						c0-0.786,0.638-1.424,1.424-1.424h7.874c0.786,0,1.424,0.637,1.424,1.424v22.946
						C343.795,430.666,343.158,431.303,342.371,431.303z"/>
					<rect x="334.171" y="406.94" style="fill:#FFFFFF;" width="8.526" height="19.772"/>
				</g>
				<g>
					<path style="fill:#D2D6DB;" d="M357.981,432.262h-7.874c-0.786,0-1.424-0.638-1.424-1.424v-22.946
						c0-0.786,0.638-1.424,1.424-1.424h7.874c0.786,0,1.424,0.637,1.424,1.424v22.946
						C359.405,431.624,358.768,432.262,357.981,432.262z"/>
					<path style="fill:#E6EAF0;" d="M357.981,431.303h-7.874c-0.786,0-1.424-0.638-1.424-1.424v-22.946
						c0-0.786,0.638-1.424,1.424-1.424h7.874c0.786,0,1.424,0.637,1.424,1.424v22.946
						C359.405,430.666,358.768,431.303,357.981,431.303z"/>
					<rect x="349.781" y="406.94" style="fill:#FFFFFF;" width="8.526" height="19.772"/>
				</g>
				<g>
					<path style="fill:#D2D6DB;" d="M373.591,432.262h-7.874c-0.786,0-1.424-0.638-1.424-1.424v-22.946
						c0-0.786,0.638-1.424,1.424-1.424h7.874c0.786,0,1.424,0.637,1.424,1.424v22.946
						C375.015,431.624,374.378,432.262,373.591,432.262z"/>
					<path style="fill:#E6EAF0;" d="M373.591,431.303h-7.874c-0.786,0-1.424-0.638-1.424-1.424v-22.946
						c0-0.786,0.638-1.424,1.424-1.424h7.874c0.786,0,1.424,0.637,1.424,1.424v22.946
						C375.015,430.666,374.378,431.303,373.591,431.303z"/>
					<rect x="365.391" y="406.94" style="fill:#FFFFFF;" width="8.526" height="19.772"/>
				</g>
				<g>
					<path style="fill:#D2D6DB;" d="M389.201,432.262h-7.874c-0.786,0-1.424-0.638-1.424-1.424v-22.946
						c0-0.786,0.637-1.424,1.424-1.424h7.874c0.786,0,1.424,0.637,1.424,1.424v22.946
						C390.625,431.624,389.988,432.262,389.201,432.262z"/>
					<path style="fill:#E6EAF0;" d="M389.201,431.303h-7.874c-0.786,0-1.424-0.638-1.424-1.424v-22.946
						c0-0.786,0.637-1.424,1.424-1.424h7.874c0.786,0,1.424,0.637,1.424,1.424v22.946
						C390.625,430.666,389.988,431.303,389.201,431.303z"/>
					<rect x="381.001" y="406.94" style="fill:#FFFFFF;" width="8.526" height="19.772"/>
				</g>
			</g>
		</g>
		<path style="fill:none;stroke:#6F7082;stroke-width:1.08;stroke-miterlimit:10;" d="M411.907,377.749
			c0,1.79-1.451,3.241-3.241,3.241s-3.241-1.451-3.241-3.241s1.451-3.241,3.241-3.241S411.907,375.958,411.907,377.749z"/>
		<path style="fill:none;stroke:#FFFFFF;stroke-width:6.2598;stroke-miterlimit:10;" d="M375.894,267.436
			c0,4.31-3.494,7.804-7.804,7.804c-4.31,0-7.804-3.494-7.804-7.804c0-4.31,3.494-7.804,7.804-7.804
			C372.4,259.633,375.894,263.126,375.894,267.436z"/>
		<g>
			<g>
				
					<line style="fill:none;stroke:#6F7082;stroke-width:1.728;stroke-miterlimit:10;" x1="289.19" y1="349.455" x2="289.19" y2="405.77"/>
				<path style="fill:none;stroke:#6F7082;stroke-width:1.728;stroke-miterlimit:10;stroke-dasharray:2.16,1.728;" d="
					M296.157,414.645c-3.143,3.848-8.81,4.419-12.657,1.276c-3.848-3.143-4.419-8.81-1.276-12.657
					c3.143-3.848,8.81-4.419,12.657-1.276C298.728,405.13,299.3,410.797,296.157,414.645z"/>
				<path style="fill:none;stroke:#6F7082;stroke-width:1.728;stroke-miterlimit:10;" d="M292.231,408.954
					c0,1.68-1.362,3.041-3.041,3.041c-1.68,0-3.041-1.362-3.041-3.041c0-1.68,1.362-3.041,3.041-3.041
					C290.87,405.913,292.231,407.275,292.231,408.954z"/>
			</g>
			<path style="fill:#6F7082;" d="M291.571,348.683c0,1.315-1.066,2.381-2.381,2.381c-1.315,0-2.381-1.066-2.381-2.381
				c0-1.315,1.066-2.381,2.381-2.381C290.505,346.303,291.571,347.369,291.571,348.683z"/>
		</g>
		<g>
			<g id="pencil_edit_2_">
				<g>
					<g>
						<path style="fill:#E6EAF0;" d="M150.339,304.175L150.339,304.175c1.389,1.388,1.389,3.64,0,5.028l-15.893,15.892h-2.179
							h-2.849v-5.028l15.892-15.892C146.699,302.786,148.951,302.786,150.339,304.175z"/>
						<path style="fill:#55C0ED;" d="M144.894,304.592l-1.335,1.336l-14.092,14.092l5.027,5.027l15.428-15.428L144.894,304.592z"/>
					</g>
				</g>
				<polygon style="fill:#42444F;" points="129.418,325.096 132.267,325.096 129.418,322.247 				"/>
			</g>
			<g>
				<g>
					<polygon style="fill:#E6EAF0;" points="146.863,355.69 134.121,355.69 130.583,339.021 150.401,339.021 					"/>
				</g>
				<g>
					<path style="fill:#6F7082;" d="M149.265,336.4h-17.546c-0.971,0-1.758,0.787-1.758,1.758v1.121h21.061v-1.121
						C151.022,337.187,150.235,336.4,149.265,336.4z"/>
					<path style="fill:#6F7082;" d="M143.62,336.855h-1.08v-1.244c0-0.247-0.202-0.447-0.448-0.447h-3.2
						c-0.247,0-0.447,0.2-0.447,0.447v1.244h-1.08v-1.244c0-0.842,0.686-1.527,1.527-1.527h3.2c0.843,0,1.528,0.686,1.528,1.527
						V336.855z"/>
				</g>
				<g>
					<path style="fill:#6F7082;" d="M140.57,352.177L140.57,352.177c-0.339,0-0.616-0.277-0.616-0.616v-8.544
						c0-0.339,0.277-0.616,0.616-0.616l0,0c0.339,0,0.616,0.277,0.616,0.616v8.544C141.186,351.9,140.909,352.177,140.57,352.177z"
						/>
					<path style="fill:#6F7082;" d="M145.216,352.177L145.216,352.177c-0.339,0-0.616-0.277-0.616-0.616v-8.544
						c0-0.339,0.277-0.616,0.616-0.616l0,0c0.339,0,0.616,0.277,0.616,0.616v8.544C145.832,351.9,145.555,352.177,145.216,352.177z"
						/>
					<path style="fill:#6F7082;" d="M135.924,352.177L135.924,352.177c-0.339,0-0.616-0.277-0.616-0.616v-8.544
						c0-0.339,0.277-0.616,0.616-0.616l0,0c0.339,0,0.616,0.277,0.616,0.616v8.544C136.54,351.9,136.263,352.177,135.924,352.177z"
						/>
				</g>
			</g>
			<g id="gear_12_">
				<path style="fill:#6F7082;" d="M152.167,284.709c0.134-0.705,0.207-1.432,0.207-2.176s-0.073-1.471-0.207-2.176h-1.892
					c-0.384,0-0.52-0.508-0.188-0.701l1.639-0.947c-0.487-1.397-1.233-2.671-2.181-3.767l-1.725,0.997
					c-0.332,0.192-0.704-0.178-0.514-0.511l0.985-1.732c-1.102-0.94-2.382-1.677-3.782-2.155l-0.871,1.531
					c-0.191,0.335-0.702,0.2-0.702-0.186v-1.761c-0.705-0.134-1.432-0.207-2.176-0.207s-1.471,0.073-2.176,0.207v1.892
					c0,0.384-0.508,0.52-0.701,0.188l-0.947-1.639c-1.397,0.487-2.671,1.233-3.767,2.181l0.997,1.725
					c0.192,0.331-0.178,0.703-0.511,0.514l-1.732-0.985c-0.94,1.102-1.677,2.382-2.155,3.782l1.531,0.871
					c0.335,0.191,0.2,0.702-0.186,0.702h-1.761c-0.134,0.705-0.207,1.432-0.207,2.176s0.073,1.471,0.207,2.176h1.892
					c0.384,0,0.52,0.508,0.188,0.7l-1.639,0.947c0.487,1.397,1.233,2.671,2.181,3.767l1.725-0.997
					c0.332-0.192,0.704,0.178,0.514,0.511l-0.985,1.732c1.102,0.94,2.382,1.677,3.782,2.155l0.871-1.531
					c0.191-0.335,0.702-0.2,0.702,0.186v1.761c0.705,0.134,1.432,0.206,2.176,0.206s1.471-0.073,2.176-0.206v-1.892
					c0-0.384,0.508-0.52,0.7-0.188l0.947,1.639c1.397-0.487,2.671-1.233,3.767-2.181l-0.997-1.725
					c-0.192-0.332,0.178-0.704,0.511-0.514l1.732,0.985c0.94-1.102,1.677-2.382,2.155-3.782l-1.531-0.871
					c-0.335-0.191-0.2-0.702,0.186-0.702H152.167z M141.098,287.723c-3.139,0.198-5.726-2.389-5.528-5.528
					c0.163-2.588,2.264-4.689,4.852-4.852c3.139-0.198,5.726,2.389,5.528,5.528C145.786,285.459,143.686,287.559,141.098,287.723z"
					/>
			</g>
		</g>
		<g id="_x30__7_">
			<path style="fill:#6F7082;" d="M115.112,379.869h-0.876c-0.485,0-0.878-0.393-0.878-0.878v-0.876
				c0-0.427-0.286-0.821-0.705-0.904c-0.563-0.112-1.061,0.322-1.061,0.866v0.914c0,0.485-0.393,0.878-0.878,0.878h-0.876
				c-0.427,0-0.821,0.286-0.904,0.705c-0.112,0.563,0.322,1.061,0.866,1.061h0.914c0.485,0,0.878,0.393,0.878,0.878v0.876
				c0,0.427,0.286,0.821,0.705,0.904c0.563,0.112,1.061-0.322,1.061-0.866v-0.914c0-0.485,0.393-0.878,0.878-0.878h0.914
				c0.544,0,0.977-0.498,0.866-1.061C115.933,380.156,115.539,379.869,115.112,379.869z"/>
		</g>
		<g id="_x30__8_">
			<path style="fill:#42444F;" d="M85.478,303.89h-1.123c-0.622,0-1.126-0.504-1.126-1.126v-1.123c0-0.548-0.367-1.053-0.904-1.159
				c-0.721-0.143-1.361,0.412-1.361,1.11v1.172c0,0.622-0.504,1.126-1.126,1.126h-1.123c-0.548,0-1.053,0.367-1.159,0.904
				c-0.143,0.721,0.412,1.361,1.11,1.361h1.172c0.622,0,1.126,0.504,1.126,1.126v1.123c0,0.548,0.367,1.053,0.904,1.159
				c0.722,0.143,1.361-0.412,1.361-1.11v-1.172c0-0.622,0.504-1.126,1.126-1.126h1.172c0.698,0,1.253-0.639,1.11-1.361
				C86.53,304.257,86.025,303.89,85.478,303.89z"/>
		</g>
		<g>
			<path style="fill:#FFFFFF;" d="M120.427,244.407l-13.407,13.407c-0.76,0.76-2.002,0.76-2.762,0l0,0
				c-0.759-0.759-0.759-2.002,0-2.762l13.407-13.407c0.759-0.76,2.002-0.76,2.762,0l0,0
				C121.186,242.405,121.186,243.648,120.427,244.407z"/>
			<path style="fill:#FFFFFF;" d="M126.804,238.03l-1.557,1.557c-0.759,0.76-2.002,0.76-2.762,0l0,0
				c-0.759-0.76-0.759-2.002,0-2.762l1.557-1.557c0.76-0.759,2.002-0.759,2.762,0l0,0
				C127.564,236.028,127.564,237.271,126.804,238.03z"/>
			<path style="fill:#FFFFFF;" d="M134.665,230.17l-0.278,0.278c-0.76,0.76-2.002,0.76-2.762,0l0,0c-0.76-0.76-0.76-2.002,0-2.762
				l0.278-0.278c0.759-0.76,2.002-0.76,2.762,0l0,0C135.424,228.167,135.424,229.41,134.665,230.17z"/>
		</g>
		<g>
			<path style="fill:#35363B;" d="M107.844,150.089c0,2.889-2.342,5.23-5.23,5.23c-2.888,0-5.23-2.342-5.23-5.23
				c0-2.888,2.342-5.23,5.23-5.23C105.502,144.859,107.844,147.2,107.844,150.089z"/>
			<path style="fill:#35363B;" d="M170.21,212.29c0,2.889-2.342,5.23-5.23,5.23c-2.889,0-5.23-2.342-5.23-5.23s2.342-5.23,5.23-5.23
				C167.868,207.06,170.21,209.401,170.21,212.29z"/>
			<path style="fill:none;stroke:#35363B;stroke-width:2.16;stroke-linecap:round;stroke-linejoin:round;stroke-miterlimit:10;" d="
				M164.794,212.29h-42.451c-10.872,0-19.685-8.813-19.685-19.685v-42.517"/>
		</g>
		<g>
			<rect x="366.613" y="116.002" style="fill:#35363B;" width="21.623" height="2.678"/>
			<rect x="390.157" y="116.002" style="fill:#35363B;" width="16.646" height="2.678"/>
			<rect x="408.581" y="116.002" style="fill:#35363B;" width="13.216" height="2.678"/>
			<rect x="377.282" y="122.198" style="fill:#35363B;" width="44.516" height="2.678"/>
			<rect x="366.613" y="122.198" style="fill:#35363B;" width="8.179" height="2.678"/>
			<rect x="391.153" y="128.393" style="fill:#35363B;" width="21.056" height="2.678"/>
			<rect x="414.201" y="128.393" style="fill:#35363B;" width="7.597" height="2.678"/>
			<rect x="366.613" y="128.393" style="fill:#35363B;" width="22.619" height="2.678"/>
			<rect x="382.475" y="134.588" style="fill:#35363B;" width="18.338" height="2.678"/>
			<rect x="366.613" y="134.588" style="fill:#35363B;" width="13.799" height="2.678"/>
		</g>
		<g>
			<rect x="182.77" y="270.257" style="fill:#35363B;" width="20.817" height="2.578"/>
			<rect x="205.436" y="270.257" style="fill:#35363B;" width="16.025" height="2.578"/>
			<rect x="223.173" y="270.257" style="fill:#35363B;" width="12.723" height="2.578"/>
			<rect x="193.041" y="276.221" style="fill:#35363B;" width="42.856" height="2.578"/>
			<rect x="182.77" y="276.221" style="fill:#35363B;" width="7.874" height="2.578"/>
			<rect x="206.395" y="282.185" style="fill:#35363B;" width="20.271" height="2.578"/>
			<rect x="228.583" y="282.185" style="fill:#35363B;" width="7.313" height="2.578"/>
			<rect x="182.77" y="282.185" style="fill:#35363B;" width="21.776" height="2.578"/>
			<rect x="198.04" y="288.15" style="fill:#35363B;" width="17.654" height="2.578"/>
			<rect x="182.77" y="288.15" style="fill:#35363B;" width="13.284" height="2.578"/>
		</g>
		<g>
			<rect x="249.177" y="270.257" style="fill:#35363B;" width="20.817" height="2.578"/>
			<rect x="271.843" y="270.257" style="fill:#35363B;" width="16.025" height="2.578"/>
			<rect x="289.58" y="270.257" style="fill:#35363B;" width="12.723" height="2.578"/>
			<rect x="259.448" y="276.221" style="fill:#35363B;" width="42.855" height="2.578"/>
			<rect x="249.177" y="276.221" style="fill:#35363B;" width="7.874" height="2.578"/>
			<rect x="272.802" y="282.185" style="fill:#35363B;" width="20.271" height="2.578"/>
			<rect x="294.99" y="282.185" style="fill:#35363B;" width="7.313" height="2.578"/>
			<rect x="249.177" y="282.185" style="fill:#35363B;" width="21.776" height="2.578"/>
			<rect x="264.447" y="288.15" style="fill:#35363B;" width="17.654" height="2.578"/>
			<rect x="249.177" y="288.15" style="fill:#35363B;" width="13.284" height="2.578"/>
		</g>
		<g id="_x30__9_">
			<path style="fill:#42444F;" d="M367.226,162.982h-0.867c-0.48,0-0.87-0.389-0.87-0.87v-0.867c0-0.423-0.283-0.813-0.698-0.896
				c-0.557-0.111-1.051,0.318-1.051,0.857v0.906c0,0.48-0.389,0.87-0.87,0.87h-0.867c-0.423,0-0.813,0.283-0.895,0.698
				c-0.111,0.557,0.318,1.051,0.857,1.051h0.906c0.48,0,0.87,0.389,0.87,0.87v0.867c0,0.423,0.284,0.813,0.698,0.896
				c0.557,0.111,1.051-0.318,1.051-0.857v-0.906c0-0.48,0.389-0.87,0.87-0.87h0.906c0.539,0,0.968-0.494,0.857-1.051
				C368.039,163.265,367.649,162.982,367.226,162.982z"/>
		</g>
		<path style="fill:#E6EAF0;" d="M435.007,145.518c0,1.706-1.383,3.09-3.09,3.09c-1.706,0-3.09-1.383-3.09-3.09
			c0-1.706,1.383-3.09,3.09-3.09C433.623,142.429,435.007,143.812,435.007,145.518z"/>
		<path style="fill:#6F7082;" d="M408.031,96.604c0,1.117-0.905,2.022-2.022,2.022c-1.117,0-2.022-0.905-2.022-2.022
			s0.905-2.022,2.022-2.022C407.126,94.582,408.031,95.488,408.031,96.604z"/>
		<g>
			<g>
				<g>
					<path style="fill:#D8DDE6;" d="M353.013,73.77v12.312c0,2.592-2.095,4.698-4.698,4.698H230.021
						c-1.296,0-2.484-0.529-3.337-1.393c-0.832-0.842-1.361-2.009-1.361-3.305V73.77c0-2.603,2.106-4.698,4.698-4.698h118.293
						c1.534,0,2.894,0.734,3.748,1.868C352.667,71.729,353.013,72.701,353.013,73.77z"/>
					<path style="fill:#FFFFFF;" d="M353.013,73.77v12.312c0,2.592-2.095,4.698-4.698,4.698H230.021
						c-1.296,0-2.484-0.529-3.337-1.393c-0.119-0.356-0.173-0.734-0.173-1.134V74.461c0-2.182,1.782-3.964,3.964-3.964h119.773
						c0.659,0,1.274,0.162,1.814,0.443C352.667,71.729,353.013,72.701,353.013,73.77z"/>
				</g>
				<path style="fill:#42444F;" d="M348.788,88.291h-13.326c-0.951,0-1.723-0.771-1.723-1.723V73.243
					c0-0.951,0.771-1.723,1.723-1.723h13.326c0.951,0,1.723,0.771,1.723,1.723v13.326C350.511,87.52,349.739,88.291,348.788,88.291z
					"/>
			</g>
			<g>
				<path style="fill:#FFFFFF;" d="M348.152,83.897l-3.094-3.094l-0.496,0.496l-0.563-0.563c1.328-1.729,1.219-4.208-0.365-5.791
					c-1.723-1.722-4.515-1.722-6.238,0c-1.723,1.723-1.723,4.515,0,6.238c1.602,1.602,4.119,1.694,5.85,0.316l0.558,0.558
					l-0.496,0.496l3.094,3.094c0.483,0.483,1.266,0.483,1.749,0l0,0C348.635,85.162,348.635,84.379,348.152,83.897z M340.516,81.29
					c-0.351,0-0.689-0.056-1.005-0.159c-0.894-0.293-1.616-0.965-1.975-1.826c-0.16-0.382-0.248-0.801-0.248-1.242
					c0-1.783,1.446-3.228,3.228-3.228c0.441,0,0.861,0.088,1.243,0.247c0.861,0.36,1.533,1.081,1.825,1.976
					c0.104,0.316,0.16,0.654,0.16,1.005C343.744,79.845,342.299,81.29,340.516,81.29z"/>
			</g>
		</g>
		<g>
			
				<line style="fill:none;stroke:#6F7082;stroke-width:1.08;stroke-miterlimit:10;" x1="308.569" y1="81.885" x2="308.569" y2="109.365"/>
			<circle style="fill:#6F7082;" cx="308.572" cy="109.326" r="3.019"/>
			<circle style="fill:#6F7082;" cx="308.572" cy="81.961" r="3.019"/>
		</g>
		<g id="_x30__10_">
			<g>
				<path style="fill:#6F7082;" d="M127.583,414.927l13.78-13.78c0.781-0.781,2.058-0.781,2.839,0l0,0
					c0.781,0.781,0.781,2.058,0,2.839l-13.78,13.78c-0.781,0.781-2.058,0.781-2.839,0l0,0
					C126.802,416.986,126.802,415.708,127.583,414.927z"/>
				<path style="fill:#6F7082;" d="M121.028,421.482l1.6-1.6c0.781-0.781,2.058-0.781,2.839,0l0,0c0.781,0.781,0.781,2.058,0,2.839
					l-1.6,1.6c-0.781,0.781-2.058,0.781-2.839,0l0,0C120.247,423.54,120.247,422.263,121.028,421.482z"/>
				<path style="fill:#6F7082;" d="M112.949,429.561l0.286-0.286c0.781-0.781,2.058-0.781,2.839,0l0,0
					c0.781,0.781,0.781,2.058,0,2.839l-0.286,0.286c-0.781,0.781-2.058,0.781-2.839,0l0,0
					C112.168,431.619,112.168,430.342,112.949,429.561z"/>
			</g>
		</g>
		<g id="_x30__11_">
			<path style="fill:#FFFFFF;" d="M176.296,398.576h-0.955c-0.529,0-0.958-0.429-0.958-0.958v-0.955
				c0-0.466-0.312-0.896-0.769-0.987c-0.614-0.122-1.158,0.351-1.158,0.944v0.998c0,0.529-0.429,0.958-0.958,0.958h-0.955
				c-0.466,0-0.896,0.312-0.986,0.769c-0.122,0.614,0.351,1.158,0.944,1.158h0.997c0.529,0,0.958,0.429,0.958,0.958v0.955
				c0,0.466,0.312,0.896,0.769,0.987c0.614,0.122,1.158-0.351,1.158-0.944v-0.997c0-0.529,0.429-0.958,0.958-0.958h0.998
				c0.594,0,1.066-0.544,0.944-1.158C177.192,398.888,176.762,398.576,176.296,398.576z"/>
		</g>
		<text transform="matrix(1 0 0 1 76.3686 128.3056)" style="fill:#42444F; font-family:'Montserrat-Black'; font-size:29.9673px;">cms</text>
		<g>
			<path style="fill:#55C0ED;" d="M283.824,303.578h15.565c1.579,0,2.871-1.292,2.871-2.871l0,0c0-1.579-1.292-2.871-2.871-2.871
				h-15.565c-1.579,0-2.871,1.292-2.871,2.871l0,0C280.954,302.286,282.245,303.578,283.824,303.578z"/>
			<rect x="286.032" y="300.116" style="fill:#FFFFFF;" width="11.149" height="1.183"/>
		</g>
		<g>
			<path style="fill:#55C0ED;" d="M217.46,303.578h15.565c1.579,0,2.871-1.292,2.871-2.871l0,0c0-1.579-1.292-2.871-2.871-2.871
				H217.46c-1.579,0-2.871,1.292-2.871,2.871l0,0C214.59,302.286,215.881,303.578,217.46,303.578z"/>
			<rect x="219.668" y="300.116" style="fill:#FFFFFF;" width="11.149" height="1.183"/>
		</g>
		<g>
			<path style="fill:#FFFFFF;" d="M252.395,116.114h-19.76c-0.901,0-1.638-0.737-1.638-1.638l0,0c0-0.901,0.737-1.638,1.638-1.638
				h19.76c0.901,0,1.638,0.737,1.638,1.638l0,0C254.033,115.377,253.296,116.114,252.395,116.114z"/>
			<path style="fill:#FFFFFF;" d="M264.97,116.114h-4.438c-0.901,0-1.638-0.737-1.638-1.638l0,0c0-0.901,0.737-1.638,1.638-1.638
				h4.438c0.901,0,1.638,0.737,1.638,1.638l0,0C266.608,115.377,265.871,116.114,264.97,116.114z"/>
		</g>
		<g>
			<path style="fill:#E0625B;" d="M287.424,131.391c0,2.507-2.033,4.54-4.54,4.54c-2.507,0-4.54-2.032-4.54-4.54
				c0-2.507,2.033-4.54,4.54-4.54C285.392,126.852,287.424,128.884,287.424,131.391z"/>
			<path style="fill:#FFDA58;" d="M299.908,131.391c0,2.507-2.032,4.54-4.54,4.54c-2.507,0-4.54-2.032-4.54-4.54
				c0-2.507,2.033-4.54,4.54-4.54C297.876,126.852,299.908,128.884,299.908,131.391z"/>
			<path style="fill:#34909D;" d="M312.392,131.391c0,2.507-2.033,4.54-4.54,4.54c-2.507,0-4.54-2.032-4.54-4.54
				c0-2.507,2.033-4.54,4.54-4.54C310.36,126.852,312.392,128.884,312.392,131.391z"/>
		</g>
		<rect x="174.32" y="154.933" style="fill:#35363B;" width="148.675" height="28.14"/>
		<path style="fill:#55C0ED;" d="M199.521,174.585h-14.587c-2.704,0-4.895-2.192-4.895-4.895v-14.587
			c0-2.704,2.192-4.895,4.895-4.895h14.587c2.704,0,4.896,2.192,4.896,4.895v14.587
			C204.416,172.393,202.224,174.585,199.521,174.585z"/>
		
			<text transform="matrix(1 0 0 1 210.7002 176.9971)" style="fill:#FFFFFF; font-family:'BebasNeueBold'; font-size:22.545px; letter-spacing:1;">YOURWEBSITE</text>
		<g>
			<g>
				<path style="fill:#35363B;" d="M302.104,256.748H197.985c-3.976,0-7.2-3.224-7.2-7.2v-49.66c0-3.976,3.224-7.2,7.2-7.2h104.119
					c3.976,0,7.2,3.223,7.2,7.2v49.66C309.304,253.525,306.08,256.748,302.104,256.748z"/>
				<g>
					<circle style="fill:#E6EAF0;" cx="227.716" cy="248.856" r="2.661"/>
					<circle style="fill:#55C0ED;" cx="238.88" cy="248.856" r="2.661"/>
					<circle style="fill:#E6EAF0;" cx="250.044" cy="248.856" r="2.661"/>
					<path style="fill:#E6EAF0;" d="M263.87,248.856c0,1.47-1.191,2.661-2.661,2.661c-1.47,0-2.661-1.191-2.661-2.661
						c0-1.47,1.191-2.661,2.661-2.661C262.678,246.194,263.87,247.386,263.87,248.856z"/>
					<path style="fill:#E6EAF0;" d="M275.034,248.856c0,1.47-1.191,2.661-2.661,2.661c-1.47,0-2.661-1.191-2.661-2.661
						c0-1.47,1.191-2.661,2.661-2.661C273.842,246.194,275.034,247.386,275.034,248.856z"/>
				</g>
			</g>
			<g>
				<path style="fill:#6F7082;" d="M175.095,223.82l5.918,5.918c0.341,0.341,0.925,0.1,0.925-0.383V217.52
					c0-0.483-0.584-0.724-0.925-0.383l-5.918,5.918C174.883,223.266,174.883,223.609,175.095,223.82z"/>
				<path style="fill:#6F7082;" d="M324.994,223.82l-5.918,5.918c-0.341,0.341-0.925,0.1-0.925-0.383V217.52
					c0-0.483,0.583-0.724,0.925-0.383l5.918,5.918C325.205,223.266,325.205,223.609,324.994,223.82z"/>
			</g>
		</g>
		<g id="Artwork_2_6_">
			<g>
				<rect x="406.061" y="170.583" style="fill:#CDD1D6;" width="35.972" height="49.694"/>
				<polygon style="fill:#42444F;" points="415.451,170.583 406.061,170.583 406.061,179.981 				"/>
				<rect x="413.628" y="176.153" style="fill:#6F7082;" width="20.839" height="1.162"/>
				<rect x="413.628" y="179.495" style="fill:#6F7082;" width="20.839" height="1.162"/>
				<rect x="413.628" y="182.837" style="fill:#6F7082;" width="20.839" height="1.162"/>
				<rect x="413.628" y="186.179" style="fill:#6F7082;" width="20.839" height="1.162"/>
				<rect x="413.628" y="189.52" style="fill:#6F7082;" width="20.839" height="1.162"/>
				<rect x="413.628" y="192.862" style="fill:#6F7082;" width="20.839" height="1.162"/>
				<rect x="413.628" y="196.204" style="fill:#6F7082;" width="20.839" height="1.162"/>
				<rect x="413.628" y="199.546" style="fill:#6F7082;" width="20.839" height="1.162"/>
				<rect x="413.628" y="202.887" style="fill:#6F7082;" width="20.839" height="1.162"/>
				<rect x="413.628" y="206.229" style="fill:#6F7082;" width="20.839" height="1.162"/>
				<rect x="413.628" y="209.571" style="fill:#6F7082;" width="20.839" height="1.162"/>
				<rect x="413.628" y="212.913" style="fill:#6F7082;" width="12.604" height="1.162"/>
			</g>
		</g>
		<circle style="fill:#FFFFFF;" cx="203.803" cy="60.556" r="6.823"/>
		<g id="_x30__25_">
			<g>
				<path style="fill:#FFFFFF;" d="M35.931,376.359L35.931,376.359c2.586,2.586,6.779,2.586,9.365,0l16.891-16.891
					c0.977-0.977,2.56-0.977,3.536,0l0,0c0.976,0.977,0.976,2.56,0,3.536l-2.488,2.488c-1.687,1.687-1.687,4.421,0,6.108
					l0.162,0.162c1.687,1.687,4.421,1.687,6.108,0l32.889-32.888c1.687-1.687,1.687-4.421,0-6.108l0,0
					c-1.687-1.687-4.421-1.687-6.108,0l-22.428,22.428c-0.977,0.977-2.56,0.977-3.536,0l-0.162-0.162
					c-0.977-0.977-0.977-2.56,0-3.536l9.524-9.524c2.586-2.586,2.586-6.779,0-9.365l0,0c-2.586-2.586-6.779-2.586-9.365,0
					l-34.387,34.387C33.345,369.581,33.345,373.773,35.931,376.359z"/>
			</g>
		</g>
		<g>
			<g id="folder_file_2_">
				<g>
					
						<rect x="372.482" y="296.677" transform="matrix(-0.9844 -0.1758 0.1758 -0.9844 739.4391 681.5493)" style="fill:#CCD7E6;" width="54.836" height="22.707"/>
					
						<rect x="372.006" y="298.525" transform="matrix(-1 -1.224647e-16 1.224647e-16 -1 798.8487 619.7574)" style="fill:#E1E9F5;" width="54.836" height="22.707"/>
					
						<rect x="373.37" y="304.033" transform="matrix(-0.9969 0.0786 -0.0786 -0.9969 821.4178 595.1937)" style="fill:#FFFFFF;" width="51.259" height="19.447"/>
					<path style="fill:#42444F;" d="M385.778,303.312l5.284,5.284c0.767,0.767,1.806,1.197,2.891,1.197h34.977
						c2.258,0,4.088,1.83,4.088,4.088v30.345c0,2.258-1.83,4.088-4.088,4.088h-60.533c-2.258,0-4.088-1.83-4.088-4.088v-38.024
						c0-2.258,1.83-4.088,4.088-4.088h14.491C383.972,302.115,385.012,302.545,385.778,303.312z"/>
				</g>
			</g>
			<g>
				<rect x="413.485" y="340.266" style="fill:#FFFFFF;" width="9.321" height="1.716"/>
				<rect x="413.485" y="337.156" style="fill:#FFFFFF;" width="12.654" height="1.716"/>
			</g>
			<path style="fill:#55C0ED;" d="M429.692,315.333c0,1.161-0.941,2.102-2.102,2.102c-1.161,0-2.102-0.941-2.102-2.102
				c0-1.161,0.941-2.102,2.102-2.102C428.751,313.232,429.692,314.172,429.692,315.333z"/>
		</g>
		<text transform="matrix(1 0 0 1 76.3686 126.3056)" style="fill:#FFFFFF; font-family:'Montserrat-Black'; font-size:29.9673px;">cms</text>
	</g>
</g>
</svg>
