<?xml version="1.0" encoding="utf-8"?>
<!-- Generator: Adobe Illustrator 27.5.0, SVG Export Plug-In . SVG Version: 6.00 Build 0)  -->
<svg version="1.1" id="Layer_1" xmlns="http://www.w3.org/2000/svg" xmlns:xlink="http://www.w3.org/1999/xlink" x="0px" y="0px"
	 viewBox="0 0 500 400" style="enable-background:new 0 0 500 400;" xml:space="preserve">
<g id="XMLID_441_">
	<g id="XMLID_23_">
		<path id="XMLID_14_" style="fill:#E5EAFE;" d="M309.328,347.582c90.696-35.664,83.27-58.66,110.656-100.169
			c10.03-15.202,23.192-28.564,30.194-45.376c27.848-66.869-50.614-165.372-153.259-158.625
			c-33.449,2.199-65.542,15.205-99.027,16.766c-19.745,0.92-39.827-2.148-59.14,2.063c-59.135,12.892-94.65,92.623-71.113,145.071
			c18.936,42.195,71.813,62.56,87.248,106.158c4.189,11.835,5.312,24.789,11.217,35.867
			C185.494,385.714,268.667,363.57,309.328,347.582z"/>
		<g id="XMLID_16_">
			<path style="fill:#E5EAFE;" d="M215.502,368.503c-8.632,0-16.288-0.826-22.881-2.474c-12.506-3.127-21.262-9.243-26.026-18.18
				c-3.758-7.05-5.681-14.929-7.541-22.548c-1.178-4.828-2.397-9.82-4.069-14.543c-8.242-23.281-27.308-40.471-45.747-57.094
				c-17.128-15.442-34.839-31.41-44.254-52.389c-6.056-13.494-8.582-29.462-7.307-46.18c1.221-15.999,5.857-32.369,13.409-47.341
				c15.219-30.174,39.896-50.956,67.702-57.018c12.943-2.821,26.415-2.488,39.444-2.165c7.122,0.176,14.486,0.359,21.678,0.023
				c17.707-0.825,35.357-4.835,52.425-8.713c16.184-3.677,32.919-7.479,49.736-8.585c28.236-1.855,56.684,4.03,82.271,17.022
				c23.493,11.928,43.791,29.25,58.7,50.093c11.093,15.508,18.656,32.426,21.872,48.923c3.356,17.213,1.937,33.978-4.103,48.482
				c-4.796,11.516-12.485,21.616-19.921,31.384c-3.823,5.022-7.777,10.216-11.287,15.537c-6.051,9.171-10.377,17.326-14.561,25.213
				c-15.212,28.676-26.203,49.394-99.901,78.374c-10.211,4.015-46.321,17.411-82.279,21.206
				C226.707,368.179,220.913,368.503,215.502,368.503z M165.523,49.598c-8.883,0-17.814,0.459-26.471,2.346
				c-27.441,5.982-51.811,26.527-66.862,56.366c-15.763,31.25-18.035,65.814-6.078,92.457c9.308,20.742,26.921,36.621,43.954,51.977
				c18.553,16.727,37.738,34.024,46.085,57.6c1.693,4.783,2.919,9.806,4.105,14.663c1.842,7.546,3.747,15.348,7.431,22.26
				c4.592,8.616,13.082,14.525,25.234,17.563c10.585,2.646,23.98,3.14,39.812,1.47c35.804-3.78,71.782-17.126,81.956-21.127
				l0.226,0.575l-0.226-0.575c73.273-28.813,84.174-49.362,99.261-77.803c4.197-7.912,8.538-16.094,14.621-25.315
				c3.534-5.356,7.5-10.566,11.336-15.605c7.388-9.705,15.028-19.741,19.763-31.11c11.794-28.319,5.202-64.285-17.634-96.21
				c-25.032-34.996-74.923-70.87-139.884-66.6c-16.72,1.099-33.406,4.89-49.543,8.557c-17.121,3.89-34.825,7.912-52.642,8.743
				c-7.236,0.337-14.623,0.154-21.766-0.023C174.01,49.703,169.771,49.598,165.523,49.598z"/>
		</g>
	</g>
	<g id="XMLID_162_">
		<path id="XMLID_131_" style="fill:#C5C8E3;" d="M108.719,239.624c-3.357-8.573-1.789-18.208-3.024-27.332
			c-5.453-40.275-69.947-69.073-72.364-130.062c-0.345-8.699,3.36-9.994,8.685-9.673c55.228,3.332,54.797,14.98,71.947,23.767
			c10.124,5.187,26.321,6.474,36.819,25.02c10.634,18.786,2.563,22.161,34.697,46.164c80.939,60.459,8.623,96.972,20.508,130.302
			c1.699,4.764,5.078,9.672,3.313,14.412C174.252,282.096,117.662,262.461,108.719,239.624z"/>
		<path id="XMLID_136_" style="fill:#C5C8E3;" d="M226.169,254.101c-6.434-6.857-10.846-15.343-16.675-22.721
			c-5.295-6.701-11.715-12.431-17.231-18.952c-40.66-48.068-23.414-116.719-10.404-166.862c0.689-2.656,1.444-5.434,3.332-7.425
			c4.002-4.221,11.325-2.919,15.829,0.761c4.504,3.68,7.211,9.062,10.849,13.6c11.122,13.877,29.665,18.746,46.391,24.787
			c18.903,6.828,36.918,16.108,53.452,27.535c64.679,44.701,39.218,83.291,33.566,123.278c-1.676,11.855-1.627,23.963-4.283,35.638
			c-2.104,9.249-8.789,27.822-19.924,27.564c-4.1-0.095-11.428-5.285-15.623-6.697c-5.561-1.873-11.263-3.294-16.962-4.672
			C266.749,274.68,242.26,271.25,226.169,254.101z"/>
		<path id="XMLID_160_" style="fill:#C5C8E3;" d="M433.957,59.539c0.853-0.337,1.808,0.2,1.965,1.104
			c1.166,6.692,1.477,27.491,0.861,41.134c-1.706,37.805-14.903,39.844-26.632,50.122c-15.107,13.238-8.072,27.195,5.188,31.751
			c13.34,4.583,33.46-0.851,35.341,10.546c0.764,4.632-3.247,8.566-7.026,11.351c-40.222,29.635-69.247,17.877-83.222,37.544
			c-2.831,3.984-2.787,7.504,1.279,10.514c10.683,7.91,28.742-2.116,38.05,7.375c5.518,5.627,7.295,19.932-12.346,30.623
			c-8.822,4.802-18.513,7.743-28.126,10.653c-43.552,13.18-69.989,18.042-88.49-48.722c-2.682-9.679-5.379-19.441-6.039-29.464
			c-1.469-22.319,11.578-28.46,19.275-26.808c12.997,2.79,14.182,23.412,26.579,28.209c4.715,1.824,7.714-0.015,9.569-4.542
			c9.101-22.215-16.293-40.811-12.776-90.401c1.1-15.511,11.622-16.249,19.955-4.6c4.221,5.9,8.028,12.28,13.689,16.817
			c10.94,8.769,26.495,7.256,29.604-12.595c3.05-19.474-6.348-33.434,61.182-69.604C432.509,60.187,433.224,59.828,433.957,59.539z"
			/>
	</g>
	<g id="XMLID_434_">
		<g id="XMLID_414_">
			<path id="XMLID_376_" style="fill:#DAE6EA;" d="M389.131,284.069c-61.244-10.417-99.985-12.484-139.431-0.49
				c-1.539,0.468-3.092-0.682-3.092-2.291V164.331c0-1.536,1.427-2.676,2.925-2.337c55.476,12.563,93.786,12.525,139.375,0.163
				c1.522-0.413,3.02,0.736,3.02,2.313v117.235C391.928,283.189,390.594,284.318,389.131,284.069z"/>
			<path id="XMLID_164_" style="fill:#ECF9FF;" d="M383.823,291.399c-61.244-10.417-99.985-12.484-139.431-0.49
				c-1.539,0.468-3.092-0.682-3.092-2.291V171.662c0-1.536,1.427-2.676,2.925-2.337c55.476,12.563,93.786,12.525,139.375,0.163
				c1.522-0.413,3.02,0.736,3.02,2.313v117.235C386.62,290.52,385.285,291.648,383.823,291.399z"/>
			<g id="XMLID_413_">
				<g id="XMLID_385_">
					<path id="XMLID_377_" style="fill:#FFFFFF;" d="M300.031,272.872h73.161c2.377,0,4.303-1.927,4.303-4.303
						c0-2.377-1.927-4.303-4.303-4.303h-73.161c-2.377,0-4.303,1.927-4.303,4.303C295.727,270.946,297.654,272.872,300.031,272.872z
						"/>
					<path id="XMLID_380_" style="fill:#FFFFFF;" d="M278.781,272.872h3.157c2.377,0,4.303-1.927,4.303-4.303
						c0-2.377-1.927-4.303-4.303-4.303h-3.157c-2.377,0-4.303,1.927-4.303,4.303C274.478,270.946,276.405,272.872,278.781,272.872z"
						/>
					<path id="XMLID_384_" style="fill:#FFFFFF;" d="M257.532,272.872h3.157c2.377,0,4.303-1.927,4.303-4.303
						c0-2.377-1.927-4.303-4.303-4.303h-3.157c-2.377,0-4.303,1.927-4.303,4.303C253.229,270.946,255.156,272.872,257.532,272.872z"
						/>
				</g>
				<g id="XMLID_388_">
					<path id="XMLID_391_" style="fill:#FFFFFF;" d="M330.694,256.687h-73.161c-2.377,0-4.303-1.927-4.303-4.303
						s1.927-4.303,4.303-4.303h73.161c2.377,0,4.303,1.927,4.303,4.303S333.07,256.687,330.694,256.687z"/>
					<path id="XMLID_390_" style="fill:#FFFFFF;" d="M351.943,256.687h-3.157c-2.376,0-4.303-1.927-4.303-4.303
						s1.927-4.303,4.303-4.303h3.157c2.377,0,4.303,1.927,4.303,4.303S354.32,256.687,351.943,256.687z"/>
					<path id="XMLID_389_" style="fill:#FFFFFF;" d="M373.192,256.687h-3.157c-2.376,0-4.303-1.927-4.303-4.303
						s1.927-4.303,4.303-4.303h3.157c2.377,0,4.303,1.927,4.303,4.303S375.569,256.687,373.192,256.687z"/>
				</g>
				<g id="XMLID_392_">
					<path id="XMLID_397_" style="fill:#FFFFFF;" d="M300.031,240.502h73.161c2.377,0,4.303-1.927,4.303-4.303
						s-1.927-4.303-4.303-4.303h-73.161c-2.377,0-4.303,1.927-4.303,4.303S297.654,240.502,300.031,240.502z"/>
					<path id="XMLID_396_" style="fill:#FFFFFF;" d="M278.781,240.502h3.157c2.377,0,4.303-1.927,4.303-4.303
						s-1.927-4.303-4.303-4.303h-3.157c-2.377,0-4.303,1.927-4.303,4.303S276.405,240.502,278.781,240.502z"/>
					<path id="XMLID_393_" style="fill:#FFFFFF;" d="M257.532,240.502h3.157c2.377,0,4.303-1.927,4.303-4.303
						s-1.927-4.303-4.303-4.303h-3.157c-2.377,0-4.303,1.927-4.303,4.303S255.156,240.502,257.532,240.502z"/>
				</g>
				<g id="XMLID_398_">
					<path id="XMLID_402_" style="fill:#FFFFFF;" d="M330.694,224.316h-73.161c-2.377,0-4.303-1.927-4.303-4.303
						c0-2.377,1.927-4.303,4.303-4.303h73.161c2.377,0,4.303,1.927,4.303,4.303C334.997,222.39,333.07,224.316,330.694,224.316z"/>
					<path id="XMLID_401_" style="fill:#FFFFFF;" d="M351.943,224.316h-3.157c-2.376,0-4.303-1.927-4.303-4.303
						c0-2.377,1.927-4.303,4.303-4.303h3.157c2.377,0,4.303,1.927,4.303,4.303C356.246,222.39,354.32,224.316,351.943,224.316z"/>
					<path id="XMLID_399_" style="fill:#FFFFFF;" d="M373.192,224.316h-3.157c-2.376,0-4.303-1.927-4.303-4.303
						c0-2.377,1.927-4.303,4.303-4.303h3.157c2.377,0,4.303,1.927,4.303,4.303C377.495,222.39,375.569,224.316,373.192,224.316z"/>
				</g>
				<g id="XMLID_403_">
					<path id="XMLID_407_" style="fill:#FFFFFF;" d="M300.031,208.131h73.161c2.377,0,4.303-1.927,4.303-4.303
						s-1.927-4.303-4.303-4.303h-73.161c-2.377,0-4.303,1.927-4.303,4.303S297.654,208.131,300.031,208.131z"/>
					<path id="XMLID_405_" style="fill:#FFFFFF;" d="M278.781,208.131h3.157c2.377,0,4.303-1.927,4.303-4.303
						s-1.927-4.303-4.303-4.303h-3.157c-2.377,0-4.303,1.927-4.303,4.303S276.405,208.131,278.781,208.131z"/>
					<path id="XMLID_404_" style="fill:#FFFFFF;" d="M257.532,208.131h3.157c2.377,0,4.303-1.927,4.303-4.303
						s-1.927-4.303-4.303-4.303h-3.157c-2.377,0-4.303,1.927-4.303,4.303S255.156,208.131,257.532,208.131z"/>
				</g>
				<g id="XMLID_408_">
					<path id="XMLID_412_" style="fill:#FFFFFF;" d="M330.694,191.946h-73.161c-2.377,0-4.303-1.927-4.303-4.303
						s1.927-4.303,4.303-4.303h73.161c2.377,0,4.303,1.927,4.303,4.303S333.07,191.946,330.694,191.946z"/>
					<path id="XMLID_411_" style="fill:#FFFFFF;" d="M351.943,191.946h-3.157c-2.376,0-4.303-1.927-4.303-4.303
						s1.927-4.303,4.303-4.303h3.157c2.377,0,4.303,1.927,4.303,4.303S354.32,191.946,351.943,191.946z"/>
					<path id="XMLID_409_" style="fill:#FFFFFF;" d="M373.192,191.946h-3.157c-2.376,0-4.303-1.927-4.303-4.303
						s1.927-4.303,4.303-4.303h3.157c2.377,0,4.303,1.927,4.303,4.303S375.569,191.946,373.192,191.946z"/>
				</g>
			</g>
		</g>
		<g id="XMLID_375_">
			<path id="XMLID_366_" style="fill:#EDF2F2;" d="M275.293,250.679c-66.91,23.681-108.162-4.35-159.86-0.773
				c-1.386,0.096-2.565-0.999-2.565-2.388v-98.326c0-1.469,1.309-2.594,2.761-2.369c56.12,8.688,97.44,10.065,158.471,0.032
				c1.458-0.24,2.783,0.888,2.783,2.365v99.202C276.883,249.433,276.248,250.341,275.293,250.679z"/>
			<path id="XMLID_170_" style="fill:#FFFFFF;" d="M281.223,257.138c-66.91,23.681-108.162-4.35-159.86-0.773
				c-1.386,0.096-2.565-0.999-2.565-2.389V155.65c0-1.469,1.309-2.594,2.76-2.369c56.12,8.688,97.44,10.065,158.471,0.032
				c1.458-0.24,2.783,0.888,2.783,2.365v99.202C282.813,255.892,282.177,256.8,281.223,257.138z"/>
			<g id="XMLID_906_">
				<g>
					<path style="fill:#444244;" d="M139.996,179.888c-0.482,0.241-1.446,0.482-2.681,0.482c-2.862,0-5.016-1.808-5.016-5.137
						c0-3.178,2.154-5.333,5.303-5.333c1.265,0,2.064,0.271,2.41,0.452l-0.316,1.07c-0.497-0.241-1.205-0.422-2.049-0.422
						c-2.38,0-3.962,1.521-3.962,4.188c0,2.486,1.431,4.082,3.901,4.082c0.799,0,1.612-0.166,2.139-0.422L139.996,179.888z"/>
					<path style="fill:#444244;" d="M145.464,172.205v3.54h3.405v0.904h-3.405v3.57H144.5v-3.57h-3.404v-0.904h3.404v-3.54H145.464z
						"/>
					<path style="fill:#444244;" d="M154.442,172.205v3.54h3.405v0.904h-3.405v3.57h-0.964v-3.57h-3.404v-0.904h3.404v-3.54H154.442
						z"/>
				</g>
			</g>
			<g id="XMLID_367_">
				<g>
					<path style="fill:#444244;" d="M149.403,201.532c1.058-0.177,2.444-0.328,4.208-0.328c2.167,0,3.755,0.504,4.762,1.411
						c0.932,0.806,1.487,2.041,1.487,3.553c0,1.537-0.454,2.746-1.31,3.628c-1.159,1.235-3.049,1.865-5.191,1.865
						c-0.655,0-1.26-0.025-1.764-0.151v6.803h-2.192V201.532z M151.595,209.721c0.479,0.126,1.083,0.176,1.814,0.176
						c2.646,0,4.258-1.285,4.258-3.628c0-2.243-1.588-3.326-4.007-3.326c-0.957,0-1.688,0.076-2.066,0.176V209.721z"/>
					<path style="fill:#444244;" d="M164.999,201.331v7.105h8.214v-7.105h2.218v16.982h-2.218v-7.962h-8.214v7.962h-2.192v-16.982
						H164.999z"/>
					<path style="fill:#444244;" d="M179.234,201.532c1.058-0.177,2.444-0.328,4.208-0.328c2.167,0,3.755,0.504,4.762,1.411
						c0.932,0.806,1.487,2.041,1.487,3.553c0,1.537-0.454,2.746-1.31,3.628c-1.159,1.235-3.049,1.865-5.191,1.865
						c-0.655,0-1.26-0.025-1.764-0.151v6.803h-2.192V201.532z M181.427,209.721c0.479,0.126,1.083,0.176,1.814,0.176
						c2.645,0,4.258-1.285,4.258-3.628c0-2.243-1.588-3.326-4.007-3.326c-0.957,0-1.688,0.076-2.066,0.176V209.721z"/>
				</g>
			</g>
			<g id="XMLID_912_">
				<g>
					<path style="fill:#444244;" d="M195.101,247.749c-0.482,0.241-1.446,0.482-2.681,0.482c-2.862,0-5.016-1.807-5.016-5.137
						c0-3.178,2.154-5.332,5.303-5.332c1.265,0,2.063,0.271,2.41,0.452l-0.316,1.069c-0.497-0.241-1.205-0.422-2.049-0.422
						c-2.38,0-3.962,1.521-3.962,4.188c0,2.486,1.431,4.082,3.901,4.082c0.799,0,1.612-0.165,2.139-0.422L195.101,247.749z"/>
					<path style="fill:#444244;" d="M196.561,246.484c0.587,0.361,1.446,0.663,2.35,0.663c1.34,0,2.124-0.708,2.124-1.732
						c0-0.949-0.542-1.491-1.913-2.018c-1.657-0.588-2.681-1.446-2.681-2.877c0-1.582,1.31-2.757,3.284-2.757
						c1.039,0,1.792,0.241,2.244,0.497l-0.361,1.07c-0.331-0.181-1.009-0.482-1.928-0.482c-1.385,0-1.913,0.829-1.913,1.522
						c0,0.949,0.617,1.416,2.018,1.958c1.717,0.663,2.591,1.491,2.591,2.982c0,1.567-1.16,2.923-3.555,2.923
						c-0.979,0-2.049-0.286-2.591-0.648L196.561,246.484z"/>
					<path style="fill:#444244;" d="M203.988,246.484c0.587,0.361,1.446,0.663,2.35,0.663c1.34,0,2.124-0.708,2.124-1.732
						c0-0.949-0.542-1.491-1.913-2.018c-1.657-0.588-2.681-1.446-2.681-2.877c0-1.582,1.31-2.757,3.284-2.757
						c1.039,0,1.792,0.241,2.244,0.497l-0.361,1.07c-0.331-0.181-1.009-0.482-1.928-0.482c-1.386,0-1.913,0.829-1.913,1.522
						c0,0.949,0.617,1.416,2.018,1.958c1.717,0.663,2.591,1.491,2.591,2.982c0,1.567-1.16,2.923-3.555,2.923
						c-0.979,0-2.049-0.286-2.591-0.648L203.988,246.484z"/>
				</g>
			</g>
		</g>
		<g id="XMLID_365_">
			<path id="XMLID_338_" style="fill:#E1F7FF;" d="M354.152,205.371c-53.434,13.605-87.852-8.018-138.251-0.888
				c-1.445,0.205-2.739-0.911-2.739-2.37V65.586c0-1.679,1.679-2.83,3.251-2.24c58.27,21.889,91.751-0.443,137.108-1.236
				c1.343-0.023,2.449,1.055,2.449,2.399v138.535C355.97,204.145,355.219,205.1,354.152,205.371z"/>
			<path id="XMLID_174_" style="fill:#D3E7F1;" d="M349.716,210.75c-53.434,13.605-87.852-8.018-138.251-0.888
				c-1.445,0.204-2.739-0.911-2.739-2.37V70.965c0-1.679,1.679-2.83,3.251-2.24c58.27,21.889,91.751-0.443,137.108-1.236
				c1.343-0.023,2.449,1.055,2.449,2.399v138.535C351.534,209.524,350.783,210.479,349.716,210.75z"/>
			<g id="XMLID_364_">
				<g id="XMLID_341_">
					<path id="XMLID_339_" style="fill:#FFFFFF;" d="M301.995,96.561h-77.844c-1.674,0-3.03-1.357-3.03-3.03
						c0-1.674,1.357-3.031,3.03-3.031h77.844c1.674,0,3.03,1.357,3.03,3.031C305.025,95.204,303.668,96.561,301.995,96.561z"/>
					<path id="XMLID_340_" style="fill:#FFFFFF;" d="M336.11,96.561h-23.991c-1.674,0-3.03-1.357-3.03-3.03
						c0-1.674,1.357-3.031,3.03-3.031h23.991c1.674,0,3.03,1.357,3.03,3.031C339.141,95.204,337.784,96.561,336.11,96.561z"/>
				</g>
				<g id="XMLID_342_">
					<path id="XMLID_344_" style="fill:#FFFFFF;" d="M258.267,110.243h77.844c1.674,0,3.03-1.357,3.03-3.03s-1.357-3.03-3.03-3.03
						h-77.844c-1.674,0-3.03,1.357-3.03,3.03S256.593,110.243,258.267,110.243z"/>
					<path id="XMLID_343_" style="fill:#FFFFFF;" d="M224.151,110.243h23.991c1.674,0,3.03-1.357,3.03-3.03s-1.357-3.03-3.03-3.03
						h-23.991c-1.674,0-3.03,1.357-3.03,3.03S222.477,110.243,224.151,110.243z"/>
				</g>
				<g id="XMLID_345_">
					<path id="XMLID_347_" style="fill:#FFFFFF;" d="M301.995,123.926h-77.844c-1.674,0-3.03-1.357-3.03-3.03s1.357-3.03,3.03-3.03
						h77.844c1.674,0,3.03,1.357,3.03,3.03S303.668,123.926,301.995,123.926z"/>
					<path id="XMLID_346_" style="fill:#FFFFFF;" d="M336.11,123.926h-23.991c-1.674,0-3.03-1.357-3.03-3.03s1.357-3.03,3.03-3.03
						h23.991c1.674,0,3.03,1.357,3.03,3.03S337.784,123.926,336.11,123.926z"/>
				</g>
				<g id="XMLID_348_">
					<path id="XMLID_350_" style="fill:#FFFFFF;" d="M258.267,137.608h77.844c1.674,0,3.03-1.357,3.03-3.031
						c0-1.674-1.357-3.03-3.03-3.03h-77.844c-1.674,0-3.03,1.357-3.03,3.03C255.236,136.251,256.593,137.608,258.267,137.608z"/>
					<path id="XMLID_349_" style="fill:#FFFFFF;" d="M224.151,137.608h23.991c1.674,0,3.03-1.357,3.03-3.031
						c0-1.674-1.357-3.03-3.03-3.03h-23.991c-1.674,0-3.03,1.357-3.03,3.03C221.121,136.251,222.477,137.608,224.151,137.608z"/>
				</g>
				<g id="XMLID_351_">
					<path id="XMLID_353_" style="fill:#FFFFFF;" d="M301.995,151.291h-77.844c-1.674,0-3.03-1.357-3.03-3.03
						c0-1.674,1.357-3.03,3.03-3.03h77.844c1.674,0,3.03,1.357,3.03,3.03C305.025,149.934,303.668,151.291,301.995,151.291z"/>
					<path id="XMLID_352_" style="fill:#FFFFFF;" d="M336.11,151.291h-23.991c-1.674,0-3.03-1.357-3.03-3.03
						c0-1.674,1.357-3.03,3.03-3.03h23.991c1.674,0,3.03,1.357,3.03,3.03C339.141,149.934,337.784,151.291,336.11,151.291z"/>
				</g>
				<g id="XMLID_354_">
					<path id="XMLID_356_" style="fill:#FFFFFF;" d="M258.267,164.973h77.844c1.674,0,3.03-1.357,3.03-3.03
						c0-1.674-1.357-3.031-3.03-3.031h-77.844c-1.674,0-3.03,1.357-3.03,3.031C255.236,163.616,256.593,164.973,258.267,164.973z"/>
					<path id="XMLID_355_" style="fill:#FFFFFF;" d="M224.151,164.973h23.991c1.674,0,3.03-1.357,3.03-3.03
						c0-1.674-1.357-3.031-3.03-3.031h-23.991c-1.674,0-3.03,1.357-3.03,3.031C221.121,163.616,222.477,164.973,224.151,164.973z"/>
				</g>
				<g id="XMLID_358_">
					<path id="XMLID_360_" style="fill:#FFFFFF;" d="M301.995,178.655h-77.844c-1.674,0-3.03-1.357-3.03-3.03
						s1.357-3.031,3.03-3.031h77.844c1.674,0,3.03,1.357,3.03,3.031S303.668,178.655,301.995,178.655z"/>
					<path id="XMLID_359_" style="fill:#FFFFFF;" d="M336.11,178.655h-23.991c-1.674,0-3.03-1.357-3.03-3.03s1.357-3.031,3.03-3.031
						h23.991c1.674,0,3.03,1.357,3.03,3.031S337.784,178.655,336.11,178.655z"/>
				</g>
				<g id="XMLID_361_">
					<path id="XMLID_363_" style="fill:#FFFFFF;" d="M258.267,192.338h77.844c1.674,0,3.03-1.357,3.03-3.031
						c0-1.674-1.357-3.03-3.03-3.03h-77.844c-1.674,0-3.03,1.357-3.03,3.03C255.236,190.981,256.593,192.338,258.267,192.338z"/>
					<path id="XMLID_362_" style="fill:#FFFFFF;" d="M224.151,192.338h23.991c1.674,0,3.03-1.357,3.03-3.031
						c0-1.674-1.357-3.03-3.03-3.03h-23.991c-1.674,0-3.03,1.357-3.03,3.03C221.121,190.981,222.477,192.338,224.151,192.338z"/>
				</g>
			</g>
		</g>
		<g id="XMLID_433_">
			<path id="XMLID_432_" style="fill:#EDF2F2;" d="M347.329,320.186c-67.39-6.422-112.33,18.525-155.986,0.894
				c-0.912-0.368-1.516-1.247-1.516-2.23v-40.479c0-1.5,1.364-2.629,2.839-2.353c60.378,11.309,102.006-12.187,155.367-0.971
				c1.114,0.234,1.915,1.211,1.915,2.349v40.406C349.948,319.212,348.734,320.32,347.329,320.186z"/>
			<path id="XMLID_191_" style="fill:#FFFFFF;" d="M344.362,323.849c-67.39-6.422-112.331,18.525-155.986,0.894
				c-0.912-0.368-1.516-1.247-1.516-2.23v-40.479c0-1.5,1.364-2.63,2.839-2.353c60.378,11.309,102.006-12.187,155.367-0.971
				c1.114,0.234,1.915,1.211,1.915,2.349v40.406C346.982,322.875,345.767,323.983,344.362,323.849z"/>
			<g id="XMLID_431_">
				<g id="XMLID_419_">
					<path id="XMLID_415_" style="fill:#A9E2FF;" d="M268.21,295.096h-67.687c-2.023,0-3.662-1.64-3.662-3.662
						c0-2.023,1.64-3.662,3.662-3.662h67.687c2.023,0,3.662,1.64,3.662,3.662C271.872,293.456,270.233,295.096,268.21,295.096z"/>
					<path id="XMLID_417_" style="fill:#A9E2FF;" d="M309.88,295.096h-24.102c-2.023,0-3.662-1.64-3.662-3.662
						c0-2.023,1.64-3.662,3.662-3.662h24.102c2.023,0,3.662,1.64,3.662,3.662C313.542,293.456,311.902,295.096,309.88,295.096z"/>
					<path id="XMLID_418_" style="fill:#A9E2FF;" d="M333.319,295.096h-3.557c-2.023,0-3.662-1.64-3.662-3.662
						c0-2.023,1.64-3.662,3.662-3.662h3.557c2.023,0,3.662,1.64,3.662,3.662C336.982,293.456,335.342,295.096,333.319,295.096z"/>
				</g>
				<g id="XMLID_420_">
					<path id="XMLID_424_" style="fill:#A9E2FF;" d="M265.632,307.04h67.687c2.023,0,3.662-1.64,3.662-3.662
						c0-2.023-1.64-3.662-3.662-3.662h-67.687c-2.023,0-3.662,1.64-3.662,3.662C261.97,305.4,263.609,307.04,265.632,307.04z"/>
					<path id="XMLID_423_" style="fill:#A9E2FF;" d="M223.962,307.04h24.102c2.023,0,3.662-1.64,3.662-3.662
						c0-2.023-1.64-3.662-3.662-3.662h-24.102c-2.023,0-3.662,1.64-3.662,3.662C220.3,305.4,221.939,307.04,223.962,307.04z"/>
					<path id="XMLID_422_" style="fill:#A9E2FF;" d="M200.523,307.04h3.557c2.023,0,3.662-1.64,3.662-3.662
						c0-2.023-1.64-3.662-3.662-3.662h-3.557c-2.023,0-3.662,1.64-3.662,3.662C196.86,305.4,198.5,307.04,200.523,307.04z"/>
				</g>
				<g id="XMLID_425_">
					<path id="XMLID_430_" style="fill:#A9E2FF;" d="M268.21,318.984h-67.687c-2.023,0-3.662-1.64-3.662-3.662
						c0-2.023,1.64-3.662,3.662-3.662h67.687c2.023,0,3.662,1.64,3.662,3.662C271.872,317.345,270.233,318.984,268.21,318.984z"/>
					<path id="XMLID_429_" style="fill:#A9E2FF;" d="M309.88,318.984h-24.102c-2.023,0-3.662-1.64-3.662-3.662
						c0-2.023,1.64-3.662,3.662-3.662h24.102c2.023,0,3.662,1.64,3.662,3.662C313.542,317.345,311.902,318.984,309.88,318.984z"/>
					<path id="XMLID_428_" style="fill:#A9E2FF;" d="M333.319,318.984h-3.557c-2.023,0-3.662-1.64-3.662-3.662
						c0-2.023,1.64-3.662,3.662-3.662h3.557c2.023,0,3.662,1.64,3.662,3.662C336.982,317.345,335.342,318.984,333.319,318.984z"/>
				</g>
			</g>
		</g>
		<g id="XMLID_337_">
			<path id="XMLID_319_" style="fill:#9CD1F0;" d="M289.971,163.259c-60.666,12.436-104.129-3.306-155.702-0.548
				c-1.367,0.073-2.512-1.025-2.512-2.394V98.047c0-1.579,1.501-2.722,3.025-2.311c57.584,15.524,86.351-0.459,154.679-0.831
				c1.331-0.007,2.416,1.067,2.416,2.397v63.611C291.877,162.048,291.082,163.031,289.971,163.259z"/>
			<path id="XMLID_200_" style="fill:#A9E2FF;" d="M284.766,168.001c-60.666,12.436-104.129-3.306-155.702-0.548
				c-1.367,0.073-2.512-1.025-2.512-2.394v-62.271c0-1.579,1.501-2.722,3.025-2.311c57.584,15.524,86.351-0.459,154.679-0.831
				c1.331-0.007,2.416,1.066,2.416,2.397v63.611C286.673,166.789,285.878,167.773,284.766,168.001z"/>
			<g id="XMLID_336_">
				<g id="XMLID_325_">
					<path id="XMLID_320_" style="fill:#FFFFFF;" d="M171.597,126.517h-30.698c-1.977,0-3.579-1.602-3.579-3.579v-0.221
						c0-1.977,1.602-3.579,3.579-3.579h30.698c1.977,0,3.579,1.602,3.579,3.579v0.221
						C175.176,124.915,173.574,126.517,171.597,126.517z"/>
					<path id="XMLID_323_" style="fill:#FFFFFF;" d="M247.379,126.374h-64.016c-1.977,0-3.579-1.602-3.579-3.579
						c0-1.977,1.602-3.579,3.579-3.579h64.016c1.977,0,3.579,1.602,3.579,3.579C250.958,124.772,249.355,126.374,247.379,126.374z"
						/>
					<path id="XMLID_324_" style="fill:#FFFFFF;" d="M272.326,126.374h-12.096c-1.977,0-3.579-1.602-3.579-3.579v-0.078
						c0-1.977,1.602-3.579,3.579-3.579h12.096c1.977,0,3.579,1.602,3.579,3.579v0.078
						C275.904,124.772,274.302,126.374,272.326,126.374z"/>
				</g>
				<g id="XMLID_326_">
					<path id="XMLID_331_" style="fill:#FFFFFF;" d="M241.627,139.937h30.698c1.977,0,3.579-1.602,3.579-3.579v-0.221
						c0-1.977-1.602-3.579-3.579-3.579h-30.698c-1.977,0-3.579,1.602-3.579,3.579v0.221
						C238.048,138.335,239.651,139.937,241.627,139.937z"/>
					<path id="XMLID_330_" style="fill:#FFFFFF;" d="M165.846,139.794h64.016c1.977,0,3.579-1.602,3.579-3.579
						s-1.602-3.579-3.579-3.579h-64.016c-1.977,0-3.579,1.602-3.579,3.579S163.869,139.794,165.846,139.794z"/>
					<path id="XMLID_327_" style="fill:#FFFFFF;" d="M140.899,139.794h12.096c1.977,0,3.579-1.602,3.579-3.579v-0.078
						c0-1.977-1.602-3.579-3.579-3.579h-12.096c-1.977,0-3.579,1.602-3.579,3.579v0.078
						C137.32,138.192,138.923,139.794,140.899,139.794z"/>
				</g>
				<g id="XMLID_332_">
					<path id="XMLID_335_" style="fill:#FFFFFF;" d="M171.597,153.357h-30.698c-1.977,0-3.579-1.602-3.579-3.579v-0.221
						c0-1.977,1.602-3.579,3.579-3.579h30.698c1.977,0,3.579,1.602,3.579,3.579v0.221
						C175.176,151.754,173.574,153.357,171.597,153.357z"/>
					<path id="XMLID_334_" style="fill:#FFFFFF;" d="M247.379,153.214h-64.016c-1.977,0-3.579-1.602-3.579-3.579
						s1.602-3.579,3.579-3.579h64.016c1.977,0,3.579,1.602,3.579,3.579S249.355,153.214,247.379,153.214z"/>
					<path id="XMLID_333_" style="fill:#FFFFFF;" d="M272.326,153.214h-12.096c-1.977,0-3.579-1.602-3.579-3.579v-0.078
						c0-1.977,1.602-3.579,3.579-3.579h12.096c1.977,0,3.579,1.602,3.579,3.579v0.078
						C275.904,151.611,274.302,153.214,272.326,153.214z"/>
				</g>
			</g>
		</g>
		<g id="XMLID_202_">
			<circle id="XMLID_207_" style="fill:#A9E2FF;" cx="167.711" cy="277.751" r="6.306"/>
			<g id="XMLID_206_">
				<path style="fill:#A9E2FF;" d="M167.711,286.059c-4.581,0-8.308-3.727-8.308-8.308c0-4.581,3.727-8.308,8.308-8.308
					c4.581,0,8.307,3.727,8.307,8.308C176.018,282.332,172.292,286.059,167.711,286.059z M167.711,269.855
					c-4.354,0-7.895,3.542-7.895,7.895c0,4.354,3.542,7.896,7.895,7.896s7.895-3.542,7.895-7.896
					C175.606,273.397,172.065,269.855,167.711,269.855z"/>
			</g>
			<g id="XMLID_205_">
				<path style="fill:#A9E2FF;" d="M167.711,287.139c-5.176,0-9.388-4.211-9.388-9.388c0-5.177,4.211-9.388,9.388-9.388
					s9.388,4.211,9.388,9.388C177.099,282.927,172.888,287.139,167.711,287.139z M167.711,268.775c-4.949,0-8.976,4.027-8.976,8.976
					c0,4.949,4.026,8.976,8.976,8.976c4.949,0,8.976-4.026,8.976-8.976C176.687,272.802,172.66,268.775,167.711,268.775z"/>
			</g>
		</g>
		<g id="XMLID_315_">
			<path id="XMLID_318_" style="fill:#A9E2FF;" d="M411.403,228.913c0,3.483-2.823,6.306-6.306,6.306
				c-3.483,0-6.306-2.823-6.306-6.306c0-3.483,2.823-6.306,6.306-6.306C408.58,222.607,411.403,225.43,411.403,228.913z"/>
			<g id="XMLID_317_">
				<path style="fill:#A9E2FF;" d="M405.097,237.22c-4.581,0-8.308-3.727-8.308-8.308c0-4.581,3.727-8.308,8.308-8.308
					c4.581,0,8.308,3.727,8.308,8.308C413.405,233.494,409.678,237.22,405.097,237.22z M405.097,221.017
					c-4.353,0-7.895,3.542-7.895,7.895c0,4.354,3.542,7.896,7.895,7.896c4.354,0,7.895-3.542,7.895-7.896
					C412.992,224.559,409.451,221.017,405.097,221.017z"/>
			</g>
			<g id="XMLID_316_">
				<path style="fill:#A9E2FF;" d="M405.097,238.301c-5.177,0-9.388-4.211-9.388-9.388c0-5.176,4.211-9.388,9.388-9.388
					c5.176,0,9.388,4.211,9.388,9.388C414.485,234.089,410.273,238.301,405.097,238.301z M405.097,219.937
					c-4.949,0-8.976,4.026-8.976,8.975c0,4.949,4.027,8.976,8.976,8.976c4.949,0,8.975-4.027,8.975-8.976
					C414.072,223.963,410.046,219.937,405.097,219.937z"/>
			</g>
		</g>
		<g id="XMLID_243_">
			<path id="XMLID_252_" style="fill:#ECF9FF;" d="M193.167,85.562c0,3.483-2.823,6.306-6.306,6.306
				c-3.483,0-6.306-2.823-6.306-6.306c0-3.483,2.823-6.306,6.306-6.306C190.343,79.256,193.167,82.079,193.167,85.562z"/>
			<g id="XMLID_250_">
				<path style="fill:#ECF9FF;" d="M186.861,93.869c-4.581,0-8.308-3.727-8.308-8.308c0-4.581,3.727-8.307,8.308-8.307
					c4.581,0,8.307,3.727,8.307,8.307C195.168,90.143,191.441,93.869,186.861,93.869z M186.861,77.666
					c-4.354,0-7.895,3.542-7.895,7.895c0,4.353,3.542,7.895,7.895,7.895s7.895-3.542,7.895-7.895
					C194.756,81.208,191.214,77.666,186.861,77.666z"/>
			</g>
			<g id="XMLID_244_">
				<path style="fill:#ECF9FF;" d="M186.861,94.95c-5.176,0-9.388-4.211-9.388-9.388c0-5.176,4.211-9.388,9.388-9.388
					s9.388,4.211,9.388,9.388C196.248,90.738,192.037,94.95,186.861,94.95z M186.861,76.586c-4.949,0-8.976,4.026-8.976,8.976
					c0,4.949,4.026,8.976,8.976,8.976c4.949,0,8.976-4.026,8.976-8.976C195.836,80.613,191.81,76.586,186.861,76.586z"/>
			</g>
		</g>
		<g id="XMLID_221_">
			<circle id="XMLID_240_" style="fill:#ECF9FF;" cx="351.534" cy="138.158" r="15.186"/>
			<g id="XMLID_239_">
				<path style="fill:#ECF9FF;" d="M351.534,158.079c-10.985,0-19.921-8.937-19.921-19.921c0-10.985,8.937-19.921,19.921-19.921
					c10.985,0,19.922,8.937,19.922,19.921C371.456,149.143,362.519,158.079,351.534,158.079z M351.534,119.061
					c-10.53,0-19.097,8.567-19.097,19.097c0,10.53,8.567,19.097,19.097,19.097c10.53,0,19.097-8.567,19.097-19.097
					C370.631,127.628,362.065,119.061,351.534,119.061z"/>
			</g>
			<g id="XMLID_233_">
				<path style="fill:#ECF9FF;" d="M351.534,160.681c-12.419,0-22.523-10.104-22.523-22.523c0-12.419,10.104-22.523,22.523-22.523
					c12.419,0,22.523,10.104,22.523,22.523C374.057,150.577,363.953,160.681,351.534,160.681z M351.534,116.46
					c-11.964,0-21.698,9.734-21.698,21.698c0,11.965,9.734,21.699,21.698,21.699c11.965,0,21.699-9.734,21.699-21.699
					C373.233,126.194,363.499,116.46,351.534,116.46z"/>
			</g>
		</g>
		<g id="XMLID_254_">
			<circle id="XMLID_312_" style="fill:#ECF9FF;" cx="99.242" cy="133.065" r="11.201"/>
			<g id="XMLID_310_">
				<path style="fill:#ECF9FF;" d="M99.242,147.868c-8.162,0-14.803-6.641-14.803-14.803s6.64-14.803,14.803-14.803
					c8.162,0,14.803,6.641,14.803,14.803S107.404,147.868,99.242,147.868z M99.242,119.087c-7.708,0-13.978,6.271-13.978,13.978
					c0,7.708,6.271,13.978,13.978,13.978c7.708,0,13.978-6.271,13.978-13.978C113.22,125.357,106.949,119.087,99.242,119.087z"/>
			</g>
			<g id="XMLID_255_">
				<path style="fill:#ECF9FF;" d="M99.242,149.787c-9.22,0-16.722-7.501-16.722-16.722s7.501-16.722,16.722-16.722
					c9.22,0,16.722,7.501,16.722,16.722S108.462,149.787,99.242,149.787z M99.242,117.168c-8.766,0-15.897,7.131-15.897,15.897
					c0,8.766,7.132,15.897,15.897,15.897s15.897-7.131,15.897-15.897C115.139,124.299,108.007,117.168,99.242,117.168z"/>
			</g>
		</g>
	</g>
	<g id="XMLID_792_">
		<ellipse id="XMLID_435_" style="opacity:0.5;fill:#E0DFEA;" cx="290.681" cy="350.18" rx="42.718" ry="12.872"/>
		<g id="XMLID_765_">
			<path id="XMLID_776_" style="fill:#FF9A85;" d="M309.425,342.198c6.874-1.164,6.4-0.973,6.366-1.542l0.538-9.958l-8.562,0.284
				L309.425,342.198z"/>
			<g id="XMLID_766_">
				<g id="XMLID_775_">
					<path style="fill:#514342;" d="M304.321,347.63c-2.004,2.461-2.488,3.978-2.735,5.901c-0.182,1.417,0.117,2.536,1.598,2.635
						c2.965,0.197,5.751,0.204,7.629-0.472c1.014-0.365,2.145-0.818,5.495-4.502c1.954-2.148,1.231-1.826,0.253-10.408
						c-0.039-0.345-0.392-0.556-0.718-0.437c-2.506,0.916-5.354,0.247-6.556-0.118c-0.311-0.095-0.632,0.114-0.678,0.436
						C308.121,344.143,308.678,342.28,304.321,347.63z"/>
					<path style="fill:#463C3A;" d="M306.219,356.487c-1.046,0-2.093-0.053-3.049-0.116c-0.615-0.041-1.084-0.252-1.394-0.629
						c-0.397-0.483-0.526-1.215-0.395-2.238c0.257-1.996,0.776-3.544,2.78-6.004c1.301-1.598,2.172-2.562,2.749-3.2
						c1.179-1.305,1.179-1.305,1.396-2.938c0.029-0.213,0.06-0.453,0.099-0.726c0.03-0.215,0.153-0.405,0.335-0.521
						c0.181-0.115,0.402-0.146,0.607-0.084c1.109,0.337,3.956,1.024,6.425,0.122c0.219-0.08,0.455-0.055,0.65,0.065
						c0.193,0.119,0.318,0.316,0.343,0.542c0.248,2.172,0.483,3.801,0.655,4.99c0.521,3.61,0.564,3.905-0.96,5.58
						c-3.447,3.789-4.579,4.197-5.578,4.557C309.603,356.348,307.914,356.487,306.219,356.487z M304.481,347.76
						c-1.941,2.384-2.444,3.876-2.69,5.797c-0.115,0.892-0.012,1.539,0.304,1.924c0.238,0.289,0.598,0.446,1.103,0.479
						c2.463,0.163,5.547,0.259,7.546-0.461c0.954-0.343,2.034-0.733,5.412-4.447c1.393-1.531,1.373-1.671,0.857-5.244
						c-0.172-1.191-0.408-2.823-0.656-5.001c-0.011-0.101-0.065-0.185-0.151-0.238c-0.088-0.054-0.194-0.065-0.292-0.029
						c-2.586,0.946-5.538,0.235-6.687-0.115c-0.091-0.028-0.185-0.014-0.265,0.037c-0.081,0.052-0.135,0.136-0.148,0.231
						c-0.038,0.271-0.07,0.51-0.098,0.723c-0.232,1.744-0.246,1.773-1.499,3.16C306.643,345.211,305.775,346.171,304.481,347.76
						L304.481,347.76z"/>
				</g>
				<g id="XMLID_772_">
					<path style="fill:#FFFFFF;" d="M305.759,355.59c-1.322,0-2.703-0.105-3.476-0.535c-0.1-0.056-0.135-0.181-0.08-0.281
						c0.056-0.1,0.181-0.134,0.28-0.08c1.115,0.619,3.869,0.49,5.348,0.421l0.14-0.007c1.679-0.078,3.156-0.57,4.158-1.383
						c1.21-0.983,1.857-1.722,2.752-2.745c0.341-0.39,0.719-0.822,1.181-1.328c0.077-0.084,0.207-0.09,0.291-0.013
						c0.084,0.077,0.09,0.207,0.013,0.291c-0.459,0.503-0.836,0.934-1.175,1.322c-0.909,1.038-1.565,1.788-2.802,2.793
						c-1.07,0.869-2.632,1.393-4.399,1.475l-0.14,0.007C307.257,355.555,306.518,355.59,305.759,355.59z"/>
				</g>
				<g id="XMLID_770_">
					<path style="fill:#FFFFFF;" d="M309.148,350.585c-1.298,0-3.176-0.303-3.795-1.103c-0.07-0.09-0.053-0.219,0.037-0.289
						c0.089-0.07,0.219-0.054,0.289,0.037c0.568,0.736,2.904,1.056,4.141,0.909c0.11-0.016,0.216,0.066,0.229,0.18
						s-0.067,0.216-0.18,0.229C309.665,350.572,309.419,350.585,309.148,350.585z"/>
				</g>
				<g id="XMLID_768_">
					<path style="fill:#FFFFFF;" d="M311.191,347.795c-1.666,0-3.54-0.401-4.246-1.354c-0.068-0.091-0.049-0.221,0.043-0.288
						c0.092-0.068,0.221-0.048,0.288,0.043c0.781,1.053,3.731,1.443,5.598,1.022c0.112-0.024,0.221,0.046,0.246,0.156
						c0.025,0.111-0.045,0.221-0.156,0.246C312.46,347.733,311.841,347.795,311.191,347.795z"/>
				</g>
				<g id="XMLID_767_">
					<path style="fill:#FFFFFF;" d="M311.879,344.656c-1.199,0-2.581-0.178-3.385-0.879c-0.086-0.075-0.095-0.205-0.02-0.291
						c0.074-0.086,0.204-0.095,0.291-0.02c1.138,0.991,3.866,0.843,5.298,0.598c0.11-0.018,0.219,0.056,0.238,0.169
						c0.019,0.112-0.056,0.219-0.169,0.238C313.933,344.505,312.983,344.656,311.879,344.656z"/>
				</g>
			</g>
		</g>
		<g id="XMLID_613_">
			<path id="XMLID_733_" style="fill:#FF9A85;" d="M267.838,339.733c6.874-1.164,6.4-0.973,6.366-1.542l0.538-9.958l-8.563,0.284
				L267.838,339.733z"/>
			<g id="XMLID_21_">
				<g id="XMLID_713_">
					<path style="fill:#514342;" d="M262.734,345.166c-2.004,2.461-2.488,3.978-2.735,5.901c-0.182,1.417,0.117,2.536,1.598,2.635
						c2.965,0.197,5.751,0.204,7.629-0.472c1.014-0.365,2.145-0.818,5.495-4.502c1.954-2.148,1.231-1.826,0.253-10.408
						c-0.039-0.345-0.392-0.556-0.718-0.437c-2.506,0.916-5.354,0.247-6.556-0.118c-0.311-0.095-0.632,0.114-0.678,0.436
						C266.533,341.679,267.091,339.816,262.734,345.166z"/>
					<path style="fill:#463C3A;" d="M264.634,354.023c-1.046,0-2.094-0.053-3.05-0.117c-0.615-0.041-1.084-0.252-1.394-0.628
						c-0.397-0.483-0.526-1.215-0.395-2.238c0.256-1.996,0.775-3.544,2.779-6.004c1.301-1.598,2.173-2.563,2.75-3.201
						c1.179-1.304,1.179-1.304,1.396-2.938c0.029-0.213,0.06-0.453,0.099-0.726c0.03-0.215,0.153-0.405,0.335-0.521
						c0.181-0.116,0.402-0.147,0.607-0.084c1.109,0.337,3.954,1.025,6.425,0.122c0.218-0.079,0.454-0.056,0.65,0.065
						c0.192,0.119,0.318,0.316,0.344,0.542c0.248,2.173,0.483,3.801,0.655,4.99c0.521,3.61,0.564,3.905-0.96,5.581
						c-3.447,3.789-4.579,4.197-5.578,4.557C268.016,353.884,266.327,354.023,264.634,354.023z M262.734,345.166l0.16,0.13
						c-1.942,2.384-2.443,3.877-2.69,5.797c-0.115,0.892-0.012,1.539,0.304,1.924c0.238,0.289,0.598,0.446,1.103,0.479
						c2.463,0.164,5.546,0.26,7.546-0.46c0.954-0.343,2.034-0.733,5.412-4.447c1.393-1.531,1.373-1.671,0.857-5.244
						c-0.172-1.191-0.408-2.823-0.656-5.002c-0.011-0.099-0.066-0.186-0.151-0.238c-0.088-0.054-0.194-0.064-0.292-0.028
						c-2.589,0.945-5.539,0.234-6.687-0.115c-0.09-0.028-0.185-0.014-0.265,0.037c-0.081,0.052-0.135,0.136-0.148,0.231
						c-0.038,0.271-0.07,0.51-0.098,0.723c-0.232,1.744-0.246,1.774-1.498,3.16c-0.574,0.635-1.441,1.595-2.736,3.184
						L262.734,345.166z"/>
				</g>
				<g id="XMLID_637_">
					<path style="fill:#FFFFFF;" d="M264.169,353.125c-1.321,0-2.701-0.105-3.474-0.535c-0.1-0.056-0.135-0.181-0.08-0.281
						c0.055-0.099,0.181-0.134,0.28-0.08c1.116,0.62,3.872,0.491,5.353,0.42l0.135-0.006c1.679-0.078,3.156-0.57,4.158-1.383
						c1.21-0.983,1.857-1.722,2.751-2.745c0.341-0.39,0.72-0.823,1.181-1.329c0.077-0.084,0.207-0.09,0.291-0.013
						c0.084,0.076,0.09,0.207,0.013,0.291c-0.459,0.504-0.837,0.935-1.176,1.323c-0.908,1.038-1.564,1.788-2.801,2.792
						c-1.07,0.869-2.632,1.392-4.399,1.475l-0.135,0.006C265.672,353.09,264.931,353.125,264.169,353.125z"/>
				</g>
				<g id="XMLID_632_">
					<path style="fill:#FFFFFF;" d="M267.562,348.121c-1.298,0-3.177-0.303-3.796-1.104c-0.07-0.09-0.053-0.219,0.037-0.289
						c0.089-0.07,0.219-0.054,0.289,0.037c0.569,0.736,2.906,1.058,4.141,0.909c0.111-0.017,0.216,0.067,0.229,0.18
						c0.014,0.113-0.067,0.216-0.18,0.229C268.078,348.108,267.832,348.121,267.562,348.121z"/>
				</g>
				<g id="XMLID_22_">
					<path style="fill:#FFFFFF;" d="M269.604,345.33c-1.666,0-3.539-0.401-4.246-1.354c-0.068-0.091-0.049-0.221,0.043-0.288
						c0.092-0.067,0.221-0.048,0.288,0.043c0.781,1.052,3.731,1.442,5.599,1.023c0.112-0.023,0.221,0.046,0.246,0.156
						c0.025,0.111-0.045,0.221-0.156,0.246C270.873,345.269,270.254,345.33,269.604,345.33z"/>
				</g>
				<g id="XMLID_615_">
					<path style="fill:#FFFFFF;" d="M270.29,342.192c-1.199,0-2.58-0.178-3.383-0.879c-0.086-0.075-0.095-0.205-0.02-0.291
						c0.074-0.087,0.205-0.095,0.291-0.02c1.138,0.992,3.865,0.842,5.297,0.597c0.11-0.018,0.219,0.056,0.238,0.169
						c0.019,0.112-0.056,0.219-0.169,0.238C272.345,342.04,271.395,342.192,270.29,342.192z"/>
				</g>
			</g>
		</g>
		<g id="XMLID_448_">
			<path style="fill:#E9807E;" d="M215.248,264.989c-5.482-4.692-0.029-8.541,6.31-13.59c13.21-10.522,29.065,3.138,64.117-19.959
				c10.137-6.68,17.117-10.406,24.944-1.21c5.277,6.201,30.881,37.295,24.935,42.799
				C325.878,281.986,230.006,277.62,215.248,264.989z"/>
			<path style="fill:#FCA2A0;" d="M299.194,277.914c-7.199,0-14.729-0.232-21.897-0.643c-23.712-1.361-54.219-5.361-62.158-12.156
				c-1.583-1.355-2.34-2.698-2.314-4.105c0.055-2.947,3.593-5.751,7.689-8.998l0.939-0.746c5.388-4.292,11.189-4.591,18.532-4.969
				c10.453-0.538,24.769-1.275,45.597-14.999c10.431-6.874,17.331-10.382,25.164-1.178c3.221,3.784,31.281,37.143,24.921,43.031
				C331.977,276.568,316.554,277.914,299.194,277.914z M300.786,224.919c-4.409,0-9.145,2.789-15.02,6.66
				c-20.903,13.775-35.272,14.514-45.764,15.054c-7.283,0.375-13.036,0.671-18.34,4.896l-0.94,0.746
				c-4.03,3.194-7.51,5.952-7.562,8.742c-0.025,1.301,0.694,2.558,2.197,3.844c7.876,6.74,38.299,10.718,61.96,12.075
				c29.81,1.71,53.711,0.053,58.122-4.031c4.979-4.609-13.339-28.926-24.948-42.568C307.211,226.486,304.09,224.919,300.786,224.919
				z"/>
		</g>
		<g id="XMLID_745_">
			<path style="fill:#514342;" d="M318.405,335.917c1.554-45.65,8.857-97.034-8.084-142.402
				c-10.117-1.345-20.451-1.049-30.475,0.872c-3.143,0.602-3.981,1.374-4.811,4.328c-17.612,62.651-14.925,68.125-14.701,81.98
				c0.291,18.034,2.003,36.94,4.937,54.761c0.08,0.488,0.46,0.875,0.949,0.952c2.901,0.454,6.604-0.151,9.924-1.05
				c0.47-0.127,0.814-0.533,0.856-1.017c1.099-12.495,0.798-19.627,0.644-38.133c-0.234-28.123,8.499-26.908,15.355-61.08
				c0.056-0.281,0.466-0.245,0.475,0.042c0.364,12.43,5.875,25.242,8.341,50.614c1.254,12.905,1.992,27.409,4.652,49.957
				c0.044,0.372,0.311,0.683,0.648,0.845c3.714,1.792,6.734,1.062,10.339,0.425C317.99,336.916,318.387,336.461,318.405,335.917z"/>
			<path style="fill:#463C3A;" d="M312.013,337.921c-1.593,0-3.209-0.291-4.989-1.15c-0.421-0.203-0.714-0.589-0.763-1.007
				c-1.768-14.983-2.674-26.247-3.473-36.186c-0.391-4.857-0.759-9.446-1.18-13.776c-1.315-13.533-3.525-23.62-5.302-31.724
				c-1.603-7.313-2.869-13.09-3.04-18.904c0-0.013-0.001-0.031-0.032-0.034c-0.031,0-0.033,0.014-0.035,0.027
				c-3.011,15.01-6.444,23.346-9.202,30.044c-3.646,8.853-6.28,15.249-6.148,30.994c0.024,2.865,0.051,5.456,0.077,7.838
				c0.139,13.145,0.208,19.743-0.721,30.315c-0.05,0.567-0.455,1.048-1.008,1.198c-2.799,0.758-6.808,1.558-10.01,1.055
				c-0.574-0.09-1.025-0.541-1.121-1.122c-2.941-17.865-4.649-36.811-4.939-54.791c-0.025-1.524-0.08-2.965-0.133-4.358
				c-0.431-11.263-0.838-21.903,14.842-77.682c0.851-3.027,1.78-3.863,4.971-4.475c10.085-1.933,20.361-2.227,30.54-0.874
				l0.123,0.016l0.043,0.116c13.821,37.014,11.553,77.489,9.36,116.631c-0.501,8.951-0.975,17.406-1.263,25.85
				c-0.022,0.637-0.493,1.18-1.122,1.291l-0.748,0.134C315.099,337.644,313.566,337.921,312.013,337.921z M293.231,234.729
				c0.013,0,0.026,0,0.04,0.002c0.23,0.019,0.402,0.201,0.409,0.433c0.169,5.775,1.431,11.535,3.03,18.827
				c1.779,8.116,3.992,18.216,5.31,31.773c0.421,4.334,0.79,8.923,1.181,13.783c0.799,9.935,1.704,21.195,3.471,36.17
				c0.033,0.279,0.237,0.541,0.533,0.684c3.393,1.638,6.207,1.13,9.464,0.542l0.749-0.134c0.438-0.078,0.767-0.456,0.782-0.898
				c0.288-8.449,0.762-16.906,1.263-25.859c2.189-39.059,4.452-79.446-9.291-116.348c-10.095-1.328-20.284-1.03-30.286,0.887
				c-3.056,0.585-3.838,1.289-4.651,4.181c-15.663,55.717-15.257,66.324-14.827,77.554c0.053,1.396,0.109,2.838,0.133,4.367
				c0.29,17.96,1.996,36.886,4.934,54.731c0.067,0.405,0.379,0.719,0.778,0.782c3.131,0.491,7.078-0.298,9.839-1.045
				c0.387-0.105,0.67-0.441,0.705-0.837c0.927-10.551,0.858-17.142,0.719-30.274c-0.025-2.382-0.053-4.974-0.077-7.839
				c-0.132-15.828,2.516-22.257,6.18-31.154c2.752-6.682,6.176-14.997,9.18-29.969C292.839,234.874,293.019,234.729,293.231,234.729
				z"/>
		</g>
		<g id="XMLID_720_">
			<g id="XMLID_743_">
				<path style="fill:#463C3A;" d="M292.978,228.237c-0.089,0-0.171-0.058-0.198-0.148c-3.852-13.017-3.649-14.979-2.325-27.739
					c0.187-1.804,0.397-3.825,0.621-6.125c0.011-0.113,0.116-0.193,0.226-0.185c0.113,0.011,0.196,0.112,0.185,0.225
					c-0.224,2.301-0.434,4.323-0.621,6.128c-1.316,12.69-1.518,14.64,2.31,27.58c0.032,0.109-0.03,0.224-0.139,0.256
					C293.017,228.234,292.998,228.237,292.978,228.237z"/>
			</g>
			<g id="XMLID_737_">
				<path style="fill:#463C3A;" d="M316.552,334.505c-0.12-0.004-0.21-0.099-0.206-0.213l0.245-7.795
					c2.77-87.926,3.125-99.223-8.97-129.118c-0.043-0.105,0.008-0.226,0.114-0.268c0.105-0.044,0.225,0.008,0.268,0.114
					c12.128,29.975,11.772,41.282,9,129.285l-0.245,7.795C316.754,334.417,316.663,334.505,316.552,334.505z"/>
			</g>
			<g id="XMLID_735_">
				<path style="fill:#463C3A;" d="M274.873,331.079c-0.109,0-0.2-0.085-0.206-0.195l-0.274-5.159
					c-2.534-47.59-2.798-52.565,14.438-87.995c0.05-0.103,0.175-0.145,0.275-0.095c0.102,0.049,0.145,0.173,0.095,0.275
					c-17.19,35.335-16.926,40.3-14.397,87.793l0.274,5.159c0.006,0.114-0.081,0.211-0.195,0.217
					C274.88,331.079,274.876,331.079,274.873,331.079z"/>
			</g>
			<g id="XMLID_731_">
				<path style="fill:#463C3A;" d="M314.438,217.749c-0.022,0-0.044-0.004-0.066-0.011c-7.206-2.439-7.683-11.881-7.887-15.914
					l-0.027-0.52c-0.006-0.113,0.081-0.211,0.194-0.217c0.13-0.01,0.211,0.081,0.217,0.194l0.027,0.522
					c0.2,3.949,0.667,13.195,7.608,15.544c0.108,0.037,0.166,0.153,0.129,0.261C314.605,217.695,314.525,217.749,314.438,217.749z"
					/>
			</g>
			<g id="XMLID_729_">
				<path style="fill:#463C3A;" d="M271.25,215.038c-0.151,0-0.306-0.007-0.465-0.019c-0.113-0.009-0.198-0.109-0.189-0.222
					c0.009-0.114,0.109-0.198,0.222-0.189c4.712,0.38,5.633-5.707,6.622-12.154c0.145-0.944,0.29-1.893,0.449-2.828
					c0.02-0.112,0.129-0.185,0.238-0.169c0.112,0.019,0.188,0.126,0.169,0.238c-0.158,0.933-0.304,1.88-0.448,2.821
					C276.86,208.95,275.926,215.038,271.25,215.038z"/>
			</g>
			<g id="XMLID_727_">
				<path style="fill:#463C3A;" d="M290.481,219.098c-0.05,0-0.1-0.018-0.14-0.055c-4.556-4.201-4.396-7.758-4.007-16.354
					c0.063-1.396,0.134-2.978,0.19-4.699c0.004-0.114,0.082-0.214,0.213-0.199c0.114,0.004,0.203,0.099,0.199,0.213
					c-0.056,1.723-0.128,3.307-0.19,4.704c-0.382,8.46-0.541,11.961,3.875,16.032c0.084,0.077,0.089,0.207,0.012,0.291
					C290.591,219.076,290.536,219.098,290.481,219.098z"/>
			</g>
			<g id="XMLID_722_">
				<path style="fill:#463C3A;" d="M293.329,233.881c-0.155-0.003-0.287-0.081-0.358-0.21c-0.867-1.552-2.796-2.352-4.172-2.818
					c-0.108-0.037-0.166-0.154-0.129-0.261c0.036-0.108,0.153-0.165,0.261-0.129c1.44,0.488,3.463,1.331,4.4,3.008l0.14-0.23
					c1.444-2.394,2.808-4.655,5.74-3.326c0.104,0.047,0.15,0.169,0.103,0.273c-0.047,0.104-0.17,0.149-0.272,0.103
					c-2.602-1.177-3.755,0.739-5.217,3.164l-0.136,0.226C293.612,233.804,293.476,233.881,293.329,233.881z"/>
			</g>
		</g>
		<g id="XMLID_479_">
			<g id="XMLID_472_">
				<path style="fill:#BC664F;" d="M279.327,153.908c-0.098,0-0.185-0.07-0.202-0.17c-1.662-9.32,3.891-29.848,11.846-38.07
					c0.079-0.082,0.21-0.084,0.291-0.005c0.082,0.079,0.084,0.21,0.005,0.291c-7.88,8.146-13.382,28.479-11.736,37.711
					c0.02,0.112-0.055,0.219-0.167,0.239C279.351,153.907,279.339,153.908,279.327,153.908z"/>
			</g>
			<g id="XMLID_475_">
				<path style="fill:#BC664F;" d="M325.391,147.634c-0.053,0-0.105-0.02-0.146-0.06c-6.624-6.623-6.76-13.577-6.85-18.179
					c-0.034-1.726-0.06-3.088-0.4-4.015c-0.629-1.714-1.965-2.953-3.379-4.265c-1.135-1.053-2.309-2.141-3.079-3.498
					c-0.18-0.316-0.338-0.648-0.491-0.968c-0.298-0.626-0.58-1.216-1.01-1.713c-1.271-1.467-8.832-5.18-13.873-3.929
					c-0.112,0.027-0.222-0.041-0.25-0.15c-0.027-0.11,0.04-0.222,0.151-0.25c5.281-1.312,12.932,2.498,14.284,4.059
					c0.467,0.539,0.774,1.182,1.071,1.805c0.15,0.314,0.305,0.639,0.477,0.942c0.739,1.301,1.889,2.368,3.001,3.399
					c1.388,1.287,2.823,2.618,3.486,4.425c0.364,0.992,0.391,2.385,0.426,4.149c0.088,4.536,0.222,11.39,6.729,17.896
					c0.081,0.081,0.081,0.211,0,0.291C325.496,147.614,325.443,147.634,325.391,147.634z"/>
			</g>
		</g>
		<path id="XMLID_18_" style="fill:#92422F;" d="M282.582,132.32c-2.75,9.162-2.517,18.916-2.26,28.479
			c2.882,0.183,5.728-0.596,8.511-1.369c29.466-8.18,16.149-1.183,15.8-25.896C304.18,101.536,288.925,111.188,282.582,132.32z"/>
		<g id="XMLID_483_">
			<g id="XMLID_480_">
				<path style="fill:#BC664F;" d="M281.824,154.347c-0.11,0-0.201-0.086-0.206-0.197c-0.474-10.496,1.578-21.099,5.935-30.661
					c0.047-0.104,0.169-0.149,0.273-0.102c0.104,0.047,0.149,0.169,0.102,0.273c-4.329,9.503-6.369,20.04-5.898,30.472
					c0.005,0.114-0.082,0.21-0.196,0.215C281.83,154.347,281.826,154.347,281.824,154.347z"/>
			</g>
			<g id="XMLID_481_">
				<path style="fill:#BC664F;" d="M284.926,152.271c-0.095,0-0.18-0.066-0.201-0.162c-0.922-4.241-0.297-8.88,1.715-12.727
					c0.053-0.101,0.179-0.14,0.278-0.087c0.101,0.053,0.14,0.177,0.087,0.278c-1.969,3.762-2.58,8.299-1.678,12.448
					c0.024,0.111-0.046,0.221-0.157,0.245C284.955,152.27,284.94,152.271,284.926,152.271z"/>
			</g>
		</g>
		<g id="XMLID_719_">
			<path style="fill:#EED1C9;" d="M297.892,146.919c4.222,1.717,5.359,2.538,7.069,3.226c4.279,1.722-24.234,2.715-20.558-0.808
				C286.576,147.255,285.154,141.739,297.892,146.919z"/>
			<path style="fill:#D0AB9E;" d="M294.527,151.917c-4.983,0-9.948-0.446-10.579-1.665c-0.121-0.233-0.164-0.606,0.312-1.063
				c0.439-0.421,0.727-1,1.033-1.613c1.166-2.339,2.485-4.991,12.676-0.847c2.566,1.044,3.974,1.746,5.106,2.311
				c0.725,0.361,1.297,0.647,1.962,0.915c0.164,0.066,0.598,0.241,0.566,0.574c-0.023,0.241-0.231,0.5-1.587,0.762
				C302.099,151.66,298.308,151.917,294.527,151.917z M289.763,144.981c-2.717,0-3.436,1.443-4.101,2.778
				c-0.322,0.646-0.626,1.256-1.117,1.727c-0.216,0.207-0.3,0.386-0.25,0.533c0.087,0.25,0.689,0.872,4.4,1.237
				c6.431,0.631,15.843-0.054,16.483-0.758c-0.032-0.029-0.111-0.087-0.295-0.161c-0.682-0.274-1.26-0.563-1.993-0.929
				c-1.125-0.562-2.525-1.26-5.077-2.298C294.002,145.56,291.482,144.981,289.763,144.981z"/>
		</g>
		<path id="XMLID_718_" style="fill:#FF9A85;" d="M304.583,158.911c-4.168,1.169-7.29,0.761-23.535-0.054
			c5.948-5.973,9.588-14.19,10.016-22.609c0.118-2.314,0.669-2.674,2.058-3.048c17.152-4.619,13.924-5.411,11.133,3.988
			C300.68,149.227,300.937,151.054,304.583,158.911z"/>
		<path id="XMLID_716_" style="fill:#EE795C;" d="M293.123,142.872c-2.248,1.147-2.688,0.783-3.339,1.041
			c-0.182,0.651-0.446,1.718-2.064,5.438c-0.629,1.446,0.456,2.104,2.527,0.171c2.821-2.633,5.796-1.191,7.458-3.274
			c0.592-0.741,0.723-1.743,1.15-2.59c0.698-1.385,2.13-2.26,2.952-3.574c0.602-0.962,0.846-2.109,1.404-3.096
			c0.415-0.735,1.884-2.263,1.522-3.146C304.733,133.841,295.625,141.595,293.123,142.872z"/>
		<path id="XMLID_715_" style="fill:#FF9A85;" d="M294.111,143.51c14.709-5.779,22.973-28.313,5.874-29.111
			c-7.528-0.351-7.627-0.967-11.326,5.89C281.667,133.249,281.234,148.569,294.111,143.51z"/>
		<g id="XMLID_517_">
			<path id="XMLID_520_" style="fill:#E5704C;" d="M246.367,87.211c0.268-0.637,2.158-1.03,3.371,2.809
				c0.256,0.811,0.972,2.137,0.864,2.967C249.926,92.272,245.989,88.112,246.367,87.211z"/>
			<path id="XMLID_519_" style="fill:#ED794C;" d="M246.466,84.003c-0.33,0.098-0.788,0.874,0.089,2.206
				c0.508,0.772,1.398,1.442,1.975,2.164c1.76,2.202,1.614,5.358,3.002,7.811c0.343-0.364,0.265-0.934,0.265-1.434
				c0-1.047,0.438-2.055,0.383-3.103C251.996,88.121,247.408,83.723,246.466,84.003z"/>
			<path id="XMLID_518_" style="fill:#FF9A85;" d="M245.41,102.454l-3.105,11.688c-0.044,0.166,0.054,0.336,0.22,0.381l6.411,1.743
				c0.181,0.049,0.365-0.072,0.391-0.258l1.692-12.103c0.004-0.026,0.011-0.052,0.021-0.076c0.103-0.239,0.195-0.48,0.28-0.716
				c5-13.92,2.001-15.556-1.919-20.127c-0.261-0.304-0.684-0.304-0.938,0.006c-1.987,2.419,5.964,4.057,1.522,12.17
				c-1.16,2.12-3.813,1.444-3.711-2.312c0.121-4.458-3.227-0.019-2.348,2.953c0.819,2.769,0.794,3.715,1.191,4.921
				c0.15,0.453,0.215,1.017,0.299,1.605C245.423,102.371,245.421,102.414,245.41,102.454z"/>
		</g>
		<g id="XMLID_711_">
			<path style="fill:#FCA2A0;" d="M251.849,104.538c0.458,0.128,0.769,0.553,0.749,1.028c-0.386,9.004-1.3,20.735-1.654,29.571
				c-0.332,8.295,24.45,13.57,28.229,23.1c1.786,4.505,0.687,12.338-2.614,15.582c-0.537,0.527-2.789,1.513-2.539,1.478
				c-2.3,0.318-2.893-0.789-3.873-1.499c-11.905-8.628-22.407-18.5-31.493-29.314c-6.273-7.467-3.607-10.76-2.835-13.74
				c1.716-6.618,5.186-18.987,7.664-25.759c0.106-0.291,0.341-0.509,0.632-0.615C246.538,103.496,249.282,103.82,251.849,104.538z"
				/>
			<path style="fill:#E9807E;" d="M273.267,175.521c-1.374,0-2.055-0.597-2.668-1.133c-0.185-0.162-0.359-0.314-0.55-0.453
				c-11.657-8.448-22.263-18.32-31.523-29.342c-5.414-6.445-4.238-9.835-3.292-12.56c0.161-0.463,0.312-0.9,0.424-1.33
				c1.721-6.64,5.184-18.984,7.669-25.775c0.121-0.33,0.388-0.59,0.732-0.714c2.128-0.769,4.691-0.715,7.835,0.164
				c0.537,0.15,0.895,0.642,0.871,1.197c-0.187,4.369-0.504,9.463-0.81,14.39c-0.325,5.227-0.661,10.633-0.843,15.181
				c-0.167,4.168,6.27,7.61,13.085,11.254c6.528,3.49,13.277,7.099,15.132,11.778c1.895,4.778,0.581,12.586-2.652,15.764
				c-0.354,0.348-1.363,0.858-2.031,1.196c-0.24,0.121-0.487,0.246-0.53,0.279l-0.095-0.126c-0.002,0.001,0.022,0.176,0.022,0.176
				l-0.141,0.02C273.675,175.508,273.464,175.521,273.267,175.521z M247.341,104.009c-1.16,0-2.211,0.173-3.168,0.519
				c-0.251,0.091-0.445,0.278-0.531,0.514c-2.481,6.78-5.94,19.11-7.66,25.744c-0.115,0.443-0.269,0.886-0.432,1.356
				c-0.918,2.644-2.06,5.935,3.232,12.234c9.242,11.001,19.828,20.854,31.462,29.287c0.204,0.147,0.393,0.313,0.574,0.472
				c0.718,0.629,1.398,1.223,3.101,1.007c0.093-0.063,0.266-0.15,0.574-0.306c0.609-0.308,1.63-0.824,1.947-1.135
				c3.153-3.099,4.428-10.727,2.575-15.401c-1.81-4.564-8.504-8.144-14.978-11.606c-6.91-3.695-13.437-7.185-13.262-11.563
				c0.182-4.552,0.518-9.959,0.844-15.189c0.306-4.925,0.623-10.017,0.81-14.383c0.017-0.398-0.24-0.752-0.626-0.86
				C250.158,104.239,248.678,104.009,247.341,104.009z"/>
		</g>
		<g id="XMLID_710_">
			<path style="fill:#FFFFF7;" d="M315.065,191.262c-2.932-12.625-3.314-25.83-0.89-38.566c-4.015-1.25-7.894-2.121-11.956-2.299
				c-0.293-0.013-0.576,0.106-0.784,0.313c-5.849,5.777-15.287,5.104-14.001-0.616c0.04-0.176-0.117-0.335-0.296-0.306
				c-4.789,0.788-9.29,1.573-13.852,2.298c0.361,5.771,0.699,11.544,1.014,17.318c0.393,7.183,0.354,14.083-0.865,21.182
				c-0.791,4.607-1.448,8.92,3.927,10.289c2.657,0.677,18.491,0.678,29.614,0.663C312.358,201.53,316.282,196.506,315.065,191.262z"
				/>
			<path style="fill:#EEE4D9;" d="M302.771,201.746c-11.695,0-23.176-0.091-25.46-0.672c-5.64-1.436-4.846-6.056-4.079-10.523
				c1.059-6.164,1.325-12.683,0.863-21.135c-0.313-5.729-0.654-11.555-1.014-17.316l-0.012-0.187l0.185-0.029
				c2.764-0.44,5.456-0.893,8.305-1.372c1.818-0.306,3.659-0.616,5.545-0.926c0.155-0.025,0.309,0.028,0.416,0.141
				c0.105,0.111,0.147,0.266,0.114,0.414c-0.372,1.653,0.159,2.931,1.535,3.694c2.726,1.512,8.244,0.557,12.12-3.271
				c0.254-0.251,0.596-0.39,0.938-0.372c3.649,0.16,7.465,0.893,12.009,2.308l0.175,0.055l-0.034,0.181
				c-2.371,12.459-2.064,25.765,0.888,38.481c0.599,2.58,0.003,5.244-1.635,7.309c-1.62,2.042-4.046,3.215-6.655,3.219
				C305.582,201.745,304.174,201.746,302.771,201.746z M273.504,152.26c0.355,5.701,0.693,11.464,1.002,17.132
				c0.464,8.485,0.197,15.032-0.867,21.228c-0.77,4.48-1.497,8.712,3.774,10.054c2.722,0.693,20.182,0.669,29.562,0.656
				c2.483-0.003,4.791-1.12,6.333-3.063c1.559-1.966,2.127-4.502,1.556-6.959c-2.951-12.71-3.271-26.008-0.926-38.471
				c-4.432-1.368-8.163-2.079-11.728-2.235c-0.231-0.01-0.458,0.082-0.631,0.253c-4.007,3.957-9.754,4.921-12.609,3.338
				c-1.531-0.849-2.148-2.321-1.738-4.146c0.004-0.015,0-0.028-0.012-0.04c-0.006-0.007-0.024-0.022-0.049-0.017
				c-1.885,0.31-3.726,0.62-5.543,0.926C278.841,151.386,276.205,151.83,273.504,152.26z"/>
		</g>
		<g id="XMLID_491_">
			<g id="XMLID_484_">
				<path style="fill:#463C3A;" d="M296.063,159.229c-2.312,0-4.952-0.833-9.822-3.705c-3.055-1.802-5.564-2.379-7.67-1.767
					c-0.11,0.032-0.223-0.031-0.256-0.14c-0.032-0.109,0.031-0.224,0.141-0.255c2.22-0.646,4.835-0.056,7.994,1.808
					c7.447,4.392,9.442,3.957,13.417,3.09c2.542-0.555,5.704-1.245,11.445-1.021c0.767,0.03,1.474,0.119,2.104,0.264
					c0.111,0.026,0.18,0.136,0.155,0.247c-0.025,0.111-0.134,0.181-0.247,0.155c-0.604-0.14-1.286-0.225-2.027-0.254
					c-5.685-0.222-8.821,0.462-11.34,1.012C298.54,158.97,297.353,159.229,296.063,159.229z"/>
			</g>
			<g id="XMLID_485_">
				<path style="fill:#463C3A;" d="M312.649,173.441c-0.034,0-0.068-0.008-0.1-0.026c-4.831-2.68-10.486-3.99-15.935-3.691
					c-0.773,0.043-2.138,0.249-3.867,0.51c-5.915,0.894-14.853,2.243-16.949-0.239c-0.486-0.575-0.584-1.319-0.29-2.21
					c0.035-0.108,0.152-0.167,0.26-0.131c0.108,0.036,0.167,0.152,0.131,0.26c-0.249,0.757-0.179,1.35,0.214,1.815
					c1.948,2.306,11.103,0.923,16.573,0.097c1.739-0.263,3.113-0.47,3.906-0.514c5.522-0.307,11.26,1.025,16.158,3.743
					c0.1,0.055,0.136,0.18,0.081,0.28C312.792,173.403,312.721,173.441,312.649,173.441z"/>
			</g>
			<g id="XMLID_486_">
				<path style="fill:#463C3A;" d="M281.257,187.602c-2.527,0-4.969-0.449-7.262-1.606c-0.101-0.051-0.142-0.175-0.091-0.277
					c0.051-0.102,0.176-0.143,0.277-0.091c6.219,3.137,13.659,0.919,20.852-1.226c7.416-2.211,14.42-4.299,18.895,0.166
					c0.081,0.08,0.081,0.211,0,0.291c-0.081,0.081-0.211,0.081-0.292,0c-4.3-4.293-11.191-2.238-18.485-0.063
					C290.499,186.185,285.745,187.602,281.257,187.602z"/>
			</g>
			<g id="XMLID_502_">
				<path style="fill:#463C3A;" d="M308.312,199.575c-4.75,0-8.535-1.052-12.225-2.078c-6.074-1.688-12.356-3.434-22.965-0.449
					c-0.11,0.032-0.223-0.033-0.254-0.143c-0.031-0.11,0.033-0.223,0.143-0.254c10.721-3.015,17.059-1.254,23.188,0.449
					c4.768,1.325,9.698,2.695,16.667,1.746c0.109-0.016,0.216,0.064,0.232,0.176c0.015,0.113-0.064,0.217-0.176,0.232
					C311.28,199.478,309.752,199.575,308.312,199.575z"/>
			</g>
		</g>
		<g id="XMLID_370_">
			<path style="fill:#FCA2A0;" d="M279.057,192.583c-0.623,8.482-0.43,16.295-2.004,24.653
				c-14.427,76.619-108.995,51.034-42.766,17.247c3.417-1.743,6.456-4.158,8.972-7.053c18.974-21.839,14.993-21.682,24.531-47.691
				c3.929-10.714,3.722-14.191,4.821-28.31c2.385-0.213,8.034-2.298,11.482-1.382C286.791,154.239,280.284,175.86,279.057,192.583z"
				/>
			<path style="fill:#E9807E;" d="M227.347,267.488c-8.617,0-14.945-3.215-16.27-8.351c-1.884-7.302,6.548-16.343,23.134-24.804
				c3.37-1.719,6.372-4.079,8.922-7.014c14.282-16.438,15.563-20.477,19.368-32.465c1.24-3.907,2.783-8.769,5.132-15.174
				c3.418-9.321,3.697-13.136,4.442-23.332c0.109-1.495,0.228-3.127,0.369-4.934l0.011-0.141l0.141-0.013
				c0.725-0.065,1.761-0.306,2.96-0.586c2.743-0.64,6.155-1.435,8.58-0.792l0.063,0.017l0.035,0.055
				c1.596,2.48,0.129,10.456-1.728,20.554c-1.296,7.05-2.765,15.04-3.283,22.086c-0.193,2.634-0.309,5.234-0.421,7.747
				c-0.256,5.735-0.498,11.153-1.584,16.924c-3.049,16.192-10.113,29.485-20.427,38.444c-8.232,7.149-18.534,11.435-28.264,11.758
				C228.129,267.482,227.735,267.488,227.347,267.488z M272.767,151.581c-0.136,1.75-0.252,3.336-0.358,4.792
				c-0.747,10.23-1.027,14.057-4.461,23.423c-2.346,6.398-3.888,11.257-5.127,15.16c-3.82,12.038-5.107,16.093-19.434,32.583
				c-2.578,2.967-5.614,5.354-9.022,7.093c-23.339,11.906-23.833,21.045-22.962,24.422c1.323,5.129,8.206,8.376,17.113,8.079
				c14.566-0.483,41.146-11.543,48.374-49.928c1.082-5.748,1.324-11.154,1.579-16.877c0.112-2.516,0.228-5.118,0.422-7.757
				l0.167,0.012l-0.167-0.012c0.518-7.064,1.989-15.064,3.287-22.122c1.757-9.556,3.276-17.818,1.809-20.258
				c-2.339-0.591-5.672,0.185-8.354,0.811C274.495,151.267,273.504,151.498,272.767,151.581z"/>
		</g>
		<path id="XMLID_712_" style="fill:#FF9A85;" d="M346.695,163.927c0.364-2.332-2.742-0.411,3.782-9.611
			c1.094-1.543,1.741,0.167,1.253,2.03c0.356-1.573,1.113-2.438,5.047-8.032c0.285-0.405,0.708-0.862,1.182-0.719
			c1.375,0.416-0.127,2.188-3.829,8.216c5.988-8.1,5.696-7.814,6.139-8.017c0.392-0.18,1.223-0.095,0.897,0.961
			c-0.978,3.171-3.858,5.445-4.993,8.563c4.555-5.21,4.638-6.98,5.699-7.018c0.513-0.019,1.39,0.631,0.604,2.198
			c-1.226,2.446-3.83,4.136-4.517,6.785c1.179-1.136,2.23-2.404,3.128-3.773c1.116-1.703,2.358-0.962,1.702,0.229
			c-1.735,3.153-2.1,2.836-3.373,4.367c-1.032,1.242-1.62,2.808-2.668,4.037c-1.543,1.811-3.92,2.714-5.582,4.417
			c-1.185,1.214-1.419,1.804-7.419,12.178c-2.121-1.646-4.364-3.135-6.705-4.45C337.319,176.509,346.46,165.431,346.695,163.927z"/>
		<g id="XMLID_17_">
			<path style="fill:#FCA2A0;" d="M330.585,184.424c1.99-3.137,8.595-13.346,13.512-18.613c0.211-0.226,0.546-0.291,0.825-0.158
				c2.209,1.051,4.209,2.541,5.849,4.357c0.178,0.197,0.23,0.478,0.137,0.728c-4.997,13.444-22.497,53.33-33.249,21.537
				c-5.672-16.771-8.815-21.185-8.856-27.359c-0.025-3.716,3.628-9.575,6.797-12.016c0.067-0.051,0.159-0.045,0.218,0.015
				c0.674,0.674,4.489,4.526,6.131,6.989c4.796,7.194,7.634,15.704,8.009,24.347C329.973,184.585,330.405,184.707,330.585,184.424z"
				/>
			<path style="fill:#E9807E;" d="M327.569,204.45c-0.029,0-0.058,0-0.087,0c-3.923-0.058-7.281-4.137-9.982-12.122
				c-2.132-6.304-3.885-10.806-5.293-14.423c-2.286-5.871-3.546-9.105-3.572-12.988c-0.026-3.846,3.668-9.69,6.863-12.15
				c0.132-0.102,0.32-0.089,0.439,0.029c0.74,0.741,4.514,4.558,6.152,7.015c4.882,7.323,7.661,15.772,8.037,24.433
				c0.004,0.097,0.07,0.148,0.131,0.165c0.027,0.007,0.124,0.025,0.186-0.074c1.926-3.035,8.594-13.349,13.532-18.637
				c0.262-0.282,0.673-0.361,1.019-0.195c2.216,1.054,4.257,2.575,5.902,4.396c0.22,0.244,0.285,0.589,0.169,0.899
				C348.971,176.428,338.024,204.448,327.569,204.45z M315.699,153.033c-3.067,2.363-6.754,8.191-6.73,11.882
				c0.026,3.821,1.278,7.035,3.549,12.869c1.41,3.62,3.164,8.126,5.299,14.438c2.65,7.836,5.903,11.838,9.669,11.894
				c0.027,0,0.054,0,0.081,0c10.451,0,21.907-30.006,23.182-33.435c0.072-0.193,0.032-0.406-0.104-0.557
				c-1.616-1.789-3.621-3.283-5.797-4.318c-0.211-0.1-0.47-0.05-0.63,0.121c-4.918,5.268-11.571,15.559-13.493,18.588
				c-0.121,0.19-0.339,0.277-0.556,0.218c-0.221-0.059-0.369-0.245-0.379-0.474c-0.373-8.6-3.133-16.99-7.982-24.262
				C320.189,157.566,316.436,153.769,315.699,153.033z"/>
		</g>
		<g id="XMLID_445_">
			<path style="fill:#FCA2A0;" d="M308.182,213.019c6.035,19.532,7.559,16.26,8.877,34.721c0.399,5.593,5.357,11.145,6.192,16.69
				c1.604,10.65,7.127,12.259,12.3,8.599c17.068-12.074-4.417-42.665-8.41-60.593c-1.212-5.439-11.324-59.523-11.324-59.523
				c-4.15-1.859-7.563-2.85-11.934-2.404C302.22,155.654,302.307,194.005,308.182,213.019z"/>
			<path style="fill:#E9807E;" d="M330.72,274.964c-0.754,0-1.477-0.143-2.152-0.43c-2.77-1.181-4.665-4.665-5.481-10.078
				c-0.392-2.599-1.729-5.261-3.022-7.835c-1.455-2.895-2.959-5.89-3.172-8.868c-0.884-12.383-1.865-14.977-4.234-21.245
				c-1.184-3.131-2.656-7.028-4.637-13.438c-5.896-19.084-5.924-57.582-4.297-62.61l0.033-0.104l0.109-0.011
				c4.493-0.458,7.929,0.585,12.019,2.418l0.08,0.036l0.016,0.086c0.101,0.541,10.125,54.143,11.323,59.517
				c1.13,5.073,3.658,11.149,6.336,17.581c6.723,16.152,14.342,34.46,2.008,43.185C333.968,274.355,332.278,274.964,330.72,274.964z
				 M304.012,150.666c-1.587,5.412-1.511,43.397,4.331,62.304c1.977,6.4,3.448,10.291,4.63,13.419
				c2.381,6.3,3.367,8.908,4.254,21.339c0.208,2.911,1.697,5.875,3.137,8.741c1.305,2.598,2.654,5.284,3.054,7.936
				c0.797,5.292,2.623,8.687,5.28,9.82c1.99,0.847,4.327,0.387,6.757-1.333c12.115-8.57,4.55-26.746-2.124-42.783
				c-2.683-6.446-5.217-12.535-6.353-17.637c-1.176-5.279-10.849-56.983-11.309-59.442
				C311.698,151.258,308.343,150.246,304.012,150.666z"/>
		</g>
		<path id="XMLID_455_" style="fill:#BC664F;" d="M302.001,121.725c0.753,2.142-0.861,4.397-0.843,6.668
			c0.01,1.298,0.554,2.522,0.935,3.763c2.978,9.705-4.156,21.443-1.717,26.657c3.35,7.162,23.385,3.234,24.484-3.736
			c0.719-4.564-5.836-11.916-6.526-19.406c-0.355-3.85,0.684-8.056-1.278-11.387c-1.23-2.088-3.458-3.435-4.72-5.505
			c-0.726-1.19-1.099-2.566-1.815-3.762c-3.705-6.185-16.555-6.22-19.726-1.25C287.278,119.278,300.088,116.284,302.001,121.725z"/>
		<g id="XMLID_664_">
			<g id="XMLID_705_">
				<path id="XMLID_706_" style="fill:#FF9A85;" d="M302.765,129.839c-2-0.871-2.677,3.461-2.954,5.619
					C299.267,139.712,305.916,131.211,302.765,129.839z"/>
			</g>
			<g id="XMLID_701_">
				<path id="XMLID_704_" style="fill:#EE795C;" d="M302.055,131.909c-0.036-0.207-0.346-0.15-0.31,0.054
					c0.216,1.242-0.236,1.897-0.761,2.106c-0.081,0.032-0.12,0.124-0.088,0.204C301.108,134.811,302.364,133.685,302.055,131.909z"
					/>
			</g>
		</g>
		<g id="XMLID_641_">
			<path id="XMLID_651_" style="fill:#382823;" d="M295.161,131.121c0.702,0.182,1.943-2.344,0.24-2.785
				C294.492,128.1,294.013,130.823,295.161,131.121z"/>
			<path id="XMLID_650_" style="fill:#382823;" d="M287.448,128.674c0.702,0.182,1.943-2.344,0.24-2.785
				C286.779,125.653,286.299,128.376,287.448,128.674z"/>
			<path id="XMLID_649_" style="fill:#BC664F;" d="M287.507,122.568c0.663,0.015,1.38,0.14,2.091,0.44
				c1.076,0.454,0.717,1.316-0.168,1.246c-0.897-0.07-1.192-0.578-2.391-0.661L287.507,122.568z"/>
			<path id="XMLID_648_" style="fill:#BC664F;" d="M295.246,124.947c-1.141-0.25-1.345,0.661-0.582,1.115
				c1.022,0.608,1.626-0.014,3.507,1.768C300.237,129.79,298.811,125.729,295.246,124.947z"/>
			<g id="XMLID_647_">
				<path style="fill:#EE795C;" d="M288.534,134.314c-0.008,0-0.016,0-0.023-0.001c-0.765-0.085-1.427-0.494-1.76-0.818
					c-0.103-0.1-0.162-0.239-0.161-0.38c0-0.14,0.057-0.271,0.159-0.368c0.542-0.519,1.84-1.954,2.195-4.073
					c0.019-0.112,0.123-0.189,0.238-0.169c0.112,0.019,0.188,0.125,0.169,0.237c-0.375,2.241-1.745,3.755-2.316,4.302
					c-0.026,0.025-0.031,0.053-0.031,0.072c0,0.031,0.013,0.06,0.037,0.083c0.287,0.279,0.857,0.63,1.519,0.704
					c0.113,0.013,0.195,0.115,0.182,0.228C288.727,134.236,288.638,134.314,288.534,134.314z"/>
			</g>
			<path id="XMLID_644_" style="fill:#FFFFFF;" d="M289.299,138.359c-4.732,4.024-4.608-0.525-4.433-1.91
				c0.02-0.159,0.194-0.246,0.337-0.173c1.878,0.959,3.35,1.474,4.021,1.686C289.398,138.017,289.438,138.241,289.299,138.359z"/>
		</g>
		<g id="XMLID_791_">
			<g id="XMLID_784_">
				<path style="fill:#E9807E;" d="M331.556,193.792c-0.067,0-0.133-0.033-0.172-0.093c-1.61-2.455-2.123-5.616-1.372-8.455
					c0.029-0.11,0.141-0.176,0.252-0.146c0.11,0.029,0.176,0.142,0.147,0.252c-0.721,2.728-0.228,5.764,1.318,8.123
					c0.062,0.095,0.036,0.223-0.059,0.285C331.634,193.781,331.595,193.792,331.556,193.792z"/>
			</g>
			<g id="XMLID_785_">
				<path style="fill:#E9807E;" d="M246.647,140.28c-1.441,0-3.027-0.488-4.449-1.024c-0.107-0.04-0.16-0.159-0.12-0.266
					c0.04-0.106,0.159-0.161,0.266-0.12c2.648,0.998,5.888,1.835,7.446-0.57c0.062-0.095,0.19-0.123,0.285-0.061
					c0.095,0.062,0.123,0.19,0.061,0.285C249.292,139.826,248.037,140.28,246.647,140.28z"/>
			</g>
			<g id="XMLID_450_">
				<path style="fill:#E9807E;" d="M217.779,261.897c-0.032,0-0.064-0.007-0.094-0.023c-1.323-0.677-2.291-1.871-2.799-3.452
					c-0.643-2-0.437-4.416,0.537-6.306c1.652-3.205,4.874-5.3,8.109-7.086l1.125-0.619c9.965-5.468,30.701-16.847,36.753-41.332
					c0.027-0.111,0.139-0.178,0.25-0.151c0.11,0.027,0.178,0.139,0.151,0.25c-6.096,24.661-26.939,36.098-36.955,41.595
					l-1.124,0.618c-3.178,1.755-6.34,3.806-7.942,6.914c-0.925,1.795-1.121,4.091-0.511,5.99c0.474,1.474,1.371,2.585,2.595,3.211
					c0.101,0.052,0.141,0.176,0.09,0.277C217.926,261.856,217.854,261.897,217.779,261.897z"/>
			</g>
			<g id="XMLID_451_">
				<path style="fill:#E9807E;" d="M262.88,242.911c-0.042,0-0.084-0.012-0.12-0.039c-0.092-0.067-0.113-0.195-0.047-0.288
					c8.068-11.224,9.137-25.946,10.172-40.183c0.539-7.42,1.097-15.093,2.658-22.059c0.025-0.111,0.134-0.181,0.246-0.156
					c0.111,0.025,0.181,0.135,0.156,0.246c-1.555,6.936-2.111,14.594-2.65,21.999c-1.039,14.294-2.113,29.074-10.248,40.393
					C263.008,242.881,262.944,242.911,262.88,242.911z"/>
			</g>
			<g id="XMLID_452_">
				<path style="fill:#E9807E;" d="M332.291,266.72c-0.045,0-0.09-0.014-0.128-0.044c-4.311-3.407-7.351-8.781-9.294-16.428
					c-0.627-2.467-1.119-5.009-1.594-7.467c-0.713-3.687-1.45-7.5-2.657-11.113c-0.719-2.154-1.626-4.304-2.502-6.383
					c-1.803-4.274-3.666-8.694-3.999-13.386c-0.008-0.113,0.078-0.212,0.191-0.22c0.103-0.009,0.212,0.077,0.22,0.191
					c0.328,4.623,2.178,9.011,3.967,13.254c0.88,2.086,1.79,4.244,2.514,6.413c1.214,3.639,1.955,7.465,2.67,11.166
					c0.474,2.452,0.965,4.988,1.588,7.444c1.92,7.556,4.913,12.857,9.15,16.206c0.089,0.071,0.105,0.2,0.034,0.289
					C332.412,266.693,332.352,266.72,332.291,266.72z"/>
			</g>
			<g id="XMLID_453_">
				<path style="fill:#E9807E;" d="M338.542,263.93c-0.015,0-0.03-0.002-0.045-0.005c-0.111-0.025-0.181-0.135-0.156-0.246
					c1.203-5.384,0.983-11.274-0.653-17.507c-1.317-5.013-3.516-10.185-6.92-16.275c-0.056-0.099-0.02-0.225,0.079-0.281
					c0.099-0.055,0.225-0.02,0.281,0.079c3.422,6.121,5.633,11.324,6.959,16.371c1.654,6.297,1.875,12.252,0.657,17.701
					C338.722,263.865,338.637,263.93,338.542,263.93z"/>
			</g>
		</g>
		<g id="XMLID_470_">
			<g id="XMLID_20_">
				<path style="fill:#92422F;" d="M298.376,117.428c-2.285,0-5.343-1.151-5.766-2.548c-0.13-0.43-0.07-1.067,0.958-1.66
					l1.983-1.146c0.097-0.057,0.224-0.023,0.281,0.076c0.057,0.098,0.023,0.225-0.075,0.282l-1.983,1.146
					c-0.637,0.368-0.896,0.766-0.769,1.184c0.354,1.172,3.474,2.388,5.74,2.244c0.133-0.004,0.212,0.08,0.219,0.193
					c0.007,0.114-0.079,0.212-0.192,0.219C298.643,117.425,298.511,117.428,298.376,117.428z"/>
			</g>
			<g id="XMLID_460_">
				<path style="fill:#92422F;" d="M302.185,128.998c-0.106,0-0.197-0.082-0.205-0.19c-0.116-1.452,0.761-2.946,2.085-3.554
					c0.104-0.047,0.226-0.003,0.273,0.102c0.048,0.103,0.002,0.226-0.101,0.273c-1.172,0.538-1.949,1.861-1.846,3.147
					c0.009,0.113-0.075,0.213-0.189,0.222C302.196,128.998,302.191,128.998,302.185,128.998z"/>
			</g>
			<g id="XMLID_463_">
				<path style="fill:#92422F;" d="M303.266,134.381c-0.046,0-0.093-0.015-0.131-0.047c-0.088-0.072-0.101-0.202-0.029-0.29
					c0.084-0.102,0.234-0.22,0.423-0.37c1.038-0.82,2.071-1.817,1.16-3.268c-0.06-0.096-0.031-0.224,0.065-0.284
					c0.096-0.06,0.223-0.031,0.284,0.065c1.183,1.885-0.462,3.186-1.254,3.81c-0.164,0.129-0.305,0.241-0.36,0.308
					C303.385,134.355,303.326,134.381,303.266,134.381z"/>
			</g>
			<g id="XMLID_464_">
				<path style="fill:#92422F;" d="M307.565,161.51c-0.026,0-0.052-0.005-0.077-0.015c-1.729-0.696-3.339-1.762-4.657-3.082
					c-2.223-2.227-1.968-3.279,1.153-16.161c0.274-1.13,0.57-2.351,0.888-3.673c0.027-0.11,0.137-0.18,0.249-0.152
					c0.111,0.027,0.179,0.138,0.152,0.249c-0.319,1.322-0.615,2.544-0.888,3.673c-3.071,12.674-3.322,13.71-1.262,15.773
					c1.279,1.281,2.842,2.315,4.52,2.991c0.106,0.042,0.157,0.163,0.114,0.268C307.724,161.461,307.647,161.51,307.565,161.51z"/>
			</g>
			<g id="XMLID_465_">
				<path style="fill:#92422F;" d="M320.655,154.795c-0.053,0-0.106-0.02-0.146-0.061c-6.918-6.998-6.127-14.468-5.491-20.471
					c0.435-4.105,0.811-7.65-1.129-10.295c-0.067-0.092-0.047-0.221,0.044-0.288c0.091-0.067,0.22-0.048,0.288,0.044
					c2.035,2.773,1.651,6.392,1.207,10.582c-0.66,6.224-1.408,13.278,5.374,20.137c0.08,0.081,0.079,0.212-0.002,0.291
					C320.759,154.775,320.707,154.795,320.655,154.795z"/>
			</g>
			<g id="XMLID_467_">
				<path style="fill:#92422F;" d="M313.155,158.208c-0.07,0-0.138-0.036-0.177-0.1c-1.332-2.22-2.408-3.396-3.194-4.254
					c-2.328-2.543-2.328-2.543,0.363-17.252c0.342-1.868,0.727-3.975,1.157-6.357c0.02-0.112,0.128-0.186,0.24-0.166
					c0.112,0.02,0.186,0.127,0.166,0.24c-0.43,2.382-0.816,4.489-1.158,6.358c-2.654,14.507-2.654,14.507-0.464,16.9
					c0.798,0.871,1.891,2.065,3.244,4.32c0.059,0.098,0.027,0.224-0.071,0.283C313.228,158.198,313.192,158.208,313.155,158.208z"/>
			</g>
			<g id="XMLID_468_">
				<path style="fill:#92422F;" d="M309.448,122.58c-0.029,0-0.057-0.006-0.085-0.018c-0.104-0.047-0.15-0.169-0.103-0.272
					c0.8-1.778,1.531-3.654,0.921-5.334c-0.651-1.794-3.316-3.724-5.125-3.724c-0.018,0-0.04-0.001-0.052,0
					c-0.112,0-0.204-0.09-0.206-0.202c-0.002-0.114,0.089-0.208,0.202-0.21c0.018,0,0.036,0,0.055,0
					c1.985,0,4.801,2.034,5.513,3.996c0.662,1.825-0.098,3.789-0.933,5.644C309.602,122.535,309.526,122.58,309.448,122.58z"/>
			</g>
			<g id="XMLID_469_">
				<path style="fill:#92422F;" d="M306.652,120.549c-0.048,0-0.096-0.017-0.135-0.05c-0.763-0.658-1.152-1.231-1.189-1.753
					c-0.036-0.507,0.261-0.847,0.478-1.096c0.087-0.099,0.194-0.222,0.199-0.279c0.005-0.062-0.07-0.235-0.298-0.453
					c-0.506-0.482-1.456-0.909-2.445-0.776c-0.116,0.013-0.217-0.064-0.232-0.176c-0.015-0.113,0.064-0.217,0.176-0.232
					c1.202-0.162,2.25,0.376,2.785,0.886c0.17,0.162,0.451,0.48,0.424,0.787c-0.017,0.191-0.154,0.348-0.299,0.515
					c-0.198,0.226-0.402,0.46-0.378,0.796c0.029,0.4,0.381,0.895,1.047,1.47c0.087,0.074,0.096,0.204,0.022,0.291
					C306.767,120.525,306.71,120.549,306.652,120.549z"/>
			</g>
		</g>
	</g>
</g>
</svg>
